<svg width="90" height="32" viewBox="0 0 90 32" fill="none" xmlns="http://www.w3.org/2000/svg">
<path d="M85 0H31V32H85C87.7614 32 90 29.7614 90 27V5C90 2.23858 87.7614 0 85 0Z" fill="#0F1418"/>
<path d="M5 0.5H30.5V31.5H5C2.51472 31.5 0.5 29.4853 0.5 27V5C0.5 2.51472 2.51472 0.5 5 0.5Z" fill="white" stroke="#1C2125"/>
<path fill-rule="evenodd" clip-rule="evenodd" d="M24.6418 9.03599L17.065 4.53837C16.1606 4.00153 15.046 4.00153 14.1416 4.53837L6.5648 9.03599C5.66072 9.57283 5.10352 10.5647 5.10352 11.6384V20.6337C5.10352 21.7071 5.66072 22.6995 6.56506 23.2364L14.1419 27.7332C14.5941 28.0017 15.0984 28.1356 15.6034 28.1356C16.1083 28.1356 16.6126 28.0017 17.0647 27.7332L24.6415 23.2364C25.5459 22.6995 26.1034 21.7071 26.1034 20.6337V11.6384C26.1034 10.5647 25.5459 9.57283 24.6418 9.03599Z" fill="#FEFEFE"/>
<path fill-rule="evenodd" clip-rule="evenodd" d="M14.4067 27.2729L6.82991 22.776C6.08882 22.336 5.62845 21.5153 5.62845 20.6337V11.6387C5.62845 10.7571 6.08882 9.93641 6.82965 9.49667L14.4067 4.99905C14.77 4.78342 15.1838 4.66938 15.6034 4.66938C16.0228 4.66938 16.4366 4.78342 16.8001 4.99905L24.377 9.49667C25.0014 9.86735 25.4226 10.5092 25.5411 11.2292C25.2898 10.6928 24.723 10.5471 24.0626 10.9328L16.8946 15.3603C16.0008 15.8829 15.3418 16.4692 15.3412 17.5468V26.3794C15.3407 27.0247 15.6013 27.4427 16.0016 27.5639C15.8701 27.5866 15.7376 27.6025 15.6034 27.6025C15.1838 27.6025 14.77 27.4885 14.4067 27.2729ZM24.6418 9.03604L17.065 4.53868C16.6128 4.27013 16.108 4.13599 15.6034 4.13599C15.0986 4.13599 14.5938 4.27013 14.1416 4.53868L6.5648 9.03604C5.66072 9.57287 5.10352 10.5651 5.10352 11.6387V20.6337C5.10352 21.7071 5.66072 22.6996 6.56506 23.2364L14.1419 27.7335C14.5943 28.0018 15.0986 28.1359 15.6034 28.1359C16.1083 28.1359 16.6126 28.0018 17.0647 27.7335L24.6418 23.2364C25.5462 22.6996 26.1034 21.7071 26.1034 20.6337V11.6387C26.1034 10.5651 25.5462 9.57287 24.6418 9.03604Z" fill="#3E474A"/>
<path fill-rule="evenodd" clip-rule="evenodd" d="M22.6554 21.5031L20.7687 22.6324C20.7187 22.6615 20.6819 22.6943 20.6816 22.7543V23.2481C20.6816 23.3084 20.7221 23.3335 20.7721 23.3041L22.688 22.1397C22.738 22.1106 22.7456 22.0548 22.7459 21.9947V21.5592C22.7459 21.4992 22.7054 21.474 22.6554 21.5031Z" fill="#47B353"/>
<path fill-rule="evenodd" clip-rule="evenodd" d="M18.6379 17.3475C18.6991 17.3166 18.7493 17.3547 18.7501 17.4346L18.7565 18.0873C19.0298 17.9786 19.2671 17.9495 19.4822 17.9992C19.5288 18.0116 19.5494 18.0751 19.5304 18.1505L19.3867 18.7289C19.3756 18.7726 19.351 18.8168 19.3214 18.8443C19.3089 18.8564 19.2962 18.866 19.2835 18.8723C19.2642 18.8821 19.2452 18.8853 19.2269 18.8816C19.1287 18.8593 18.8954 18.8083 18.5281 18.9943C18.1429 19.1893 18.0082 19.524 18.0109 19.7724C18.0141 20.069 18.1662 20.159 18.6916 20.168C19.3917 20.1796 19.6941 20.4855 19.7016 21.1906C19.7087 21.883 19.3391 22.6265 18.7737 23.0821L18.7861 23.7282C18.7869 23.806 18.7364 23.8951 18.6752 23.9261L18.2927 24.1465C18.2313 24.1774 18.181 24.1393 18.1802 24.0616L18.1736 23.426C17.8458 23.5623 17.5137 23.5951 17.3015 23.5099C17.2616 23.4943 17.2444 23.4353 17.2603 23.3681L17.3989 22.7839C17.41 22.7379 17.4344 22.6918 17.4674 22.6624C17.4791 22.6511 17.4912 22.6423 17.5034 22.6363C17.5254 22.6251 17.5468 22.6228 17.5651 22.6296C17.7937 22.7066 18.086 22.6706 18.3673 22.5283C18.7245 22.3476 18.9634 21.9833 18.9597 21.6213C18.9562 21.293 18.7784 21.1564 18.3461 21.1533C17.7958 21.1549 17.2828 21.0464 17.2743 20.2362C17.2674 19.5692 17.6143 18.8752 18.1633 18.4363L18.1564 17.7841C18.1556 17.7039 18.2046 17.6158 18.2675 17.5841L18.6379 17.3475Z" fill="#FEFEFE"/>
<path d="M44.7612 21V10.4971H48.5845C49.7564 10.4971 50.6572 10.7119 51.2871 11.1416C51.917 11.5713 52.232 12.1768 52.232 12.958C52.232 13.5244 52.0391 14.02 51.6533 14.4448C51.2725 14.8696 50.7842 15.165 50.1885 15.3311V15.3604C50.9356 15.4531 51.5313 15.729 51.9756 16.188C52.4248 16.647 52.6494 17.2061 52.6494 17.8652C52.6494 18.8271 52.3052 19.5913 51.6167 20.1577C50.9282 20.7192 49.9883 21 48.7969 21H44.7612ZM47.127 12.2402V14.7305H48.167C48.6553 14.7305 49.0386 14.6133 49.3169 14.3789C49.6001 14.1396 49.7417 13.8125 49.7417 13.3975C49.7417 12.626 49.1655 12.2402 48.0132 12.2402H47.127ZM47.127 16.4883V19.2568H48.4087C48.9556 19.2568 49.3828 19.1299 49.6904 18.876C50.0029 18.6221 50.1592 18.2754 50.1592 17.8359C50.1592 17.416 50.0054 17.0864 49.6978 16.8472C49.395 16.6079 48.9702 16.4883 48.4234 16.4883H47.127ZM60.8421 21H58.6522V19.9233H58.6229C58.12 20.7632 57.3753 21.1831 56.389 21.1831C55.6615 21.1831 55.0877 20.978 54.6678 20.5679C54.2528 20.1528 54.0453 19.6011 54.0453 18.9126C54.0453 17.4575 54.9071 16.6177 56.6307 16.3931L58.6668 16.1221C58.6668 15.3018 58.2225 14.8916 57.3338 14.8916C56.4403 14.8916 55.5907 15.1577 54.785 15.6899V13.9468C55.1073 13.7808 55.5467 13.6343 56.1034 13.5073C56.6649 13.3804 57.1751 13.3169 57.6341 13.3169C59.7728 13.3169 60.8421 14.3838 60.8421 16.5176V21ZM58.6668 17.9531V17.4478L57.3045 17.6235C56.5526 17.7212 56.1766 18.0605 56.1766 18.6416C56.1766 18.9053 56.2669 19.1226 56.4476 19.2935C56.6331 19.4595 56.8822 19.5425 57.1947 19.5425C57.6292 19.5425 57.9832 19.3936 58.2567 19.0957C58.5301 18.793 58.6668 18.4121 58.6668 17.9531ZM62.3625 20.8022V18.9272C62.7433 19.1567 63.1217 19.3276 63.4977 19.4399C63.8786 19.5522 64.2375 19.6084 64.5744 19.6084C64.9845 19.6084 65.3068 19.5522 65.5412 19.4399C65.7804 19.3276 65.9001 19.1567 65.9001 18.9272C65.9001 18.7808 65.8463 18.6587 65.7389 18.561C65.6315 18.4634 65.4923 18.3779 65.3214 18.3047C65.1554 18.2314 64.9723 18.1655 64.7721 18.1069C64.5719 18.0483 64.3791 17.9824 64.1935 17.9092C63.8957 17.7969 63.632 17.6772 63.4025 17.5503C63.1779 17.4185 62.9875 17.2671 62.8312 17.0962C62.6798 16.9253 62.5627 16.7275 62.4796 16.5029C62.4015 16.2783 62.3625 16.0122 62.3625 15.7046C62.3625 15.2847 62.4528 14.9233 62.6335 14.6206C62.819 14.3179 63.0631 14.0713 63.3659 13.8809C63.6735 13.6855 64.0226 13.5439 64.4132 13.4561C64.8088 13.3633 65.2189 13.3169 65.6437 13.3169C65.9757 13.3169 66.3127 13.3438 66.6545 13.3975C66.9963 13.4463 67.3332 13.5195 67.6652 13.6172V15.4043C67.3722 15.2334 67.0573 15.1064 66.7204 15.0234C66.3883 14.9355 66.0612 14.8916 65.7389 14.8916C65.5876 14.8916 65.4435 14.9062 65.3068 14.9355C65.175 14.96 65.0578 14.999 64.9552 15.0527C64.8527 15.1016 64.7721 15.1675 64.7135 15.2505C64.6549 15.3286 64.6256 15.4189 64.6256 15.5215C64.6256 15.6582 64.6696 15.7754 64.7575 15.873C64.8454 15.9707 64.9601 16.0562 65.1017 16.1294C65.2433 16.1978 65.3996 16.2612 65.5705 16.3198C65.7463 16.3735 65.9196 16.4297 66.0905 16.4883C66.3981 16.5957 66.6764 16.7129 66.9254 16.8398C67.1745 16.9668 67.3869 17.1157 67.5627 17.2866C67.7433 17.4575 67.88 17.6577 67.9728 17.8872C68.0705 18.1167 68.1193 18.3901 68.1193 18.7075C68.1193 19.1519 68.0216 19.5327 67.8263 19.8501C67.6359 20.1626 67.3796 20.4189 67.0573 20.6191C66.7399 20.8145 66.3713 20.9561 65.9513 21.0439C65.5363 21.1367 65.1042 21.1831 64.6549 21.1831C63.8297 21.1831 63.0656 21.0562 62.3625 20.8022ZM76.8393 21H74.5322V16.7373C74.5322 15.6387 74.1318 15.0894 73.331 15.0894C72.9209 15.0894 72.5888 15.2432 72.3349 15.5508C72.081 15.8584 71.9541 16.249 71.9541 16.7227V21H69.6396V9.89648H71.9541V14.6133H71.9834C72.5498 13.749 73.3188 13.3169 74.2905 13.3169C75.9897 13.3169 76.8393 14.3423 76.8393 16.3931V21Z" fill="white"/>
<path d="M85 0H5C2.23858 0 0 2.23858 0 5V27C0 29.7614 2.23858 32 5 32H85C87.7614 32 90 29.7614 90 27V5C90 2.23858 87.7614 0 85 0Z" fill="url(#paint0_linear_14_1570)"/>
<defs>
<linearGradient id="paint0_linear_14_1570" x1="0" y1="0" x2="0" y2="32" gradientUnits="userSpaceOnUse">
<stop stop-color="#BBBBBB" stop-opacity="0.1"/>
<stop offset="1" stop-opacity="0.1"/>
</linearGradient>
</defs>
</svg>
