<svg width="100" height="32" viewBox="0 0 100 32" fill="none" xmlns="http://www.w3.org/2000/svg">
<path d="M95 0H31V32H95C97.7614 32 100 29.7614 100 27V5C100 2.23858 97.7614 0 95 0Z" fill="#0F1418"/>
<path d="M31 0H5C2.23858 0 0 2.23858 0 5V27C0 29.7614 2.23858 32 5 32H31V0Z" fill="white"/>
<path d="M95 0H5C2.23858 0 0 2.23858 0 5V27C0 29.7614 2.23858 32 5 32H95C97.7614 32 100 29.7614 100 27V5C100 2.23858 97.7614 0 95 0Z" fill="url(#paint0_linear_443_58)"/>
<g clip-path="url(#clip0_443_58)">
<path d="M29 16.0004C29 8.82055 23.1796 3 15.9998 3C8.82319 3 3.00508 8.81567 3 15.9913V26.0514C3.00386 27.6807 4.32529 28.9997 5.95557 28.9997H16.0051C23.1825 28.9969 29 23.1783 29 16.0004Z" fill="#294172"/>
<path d="M19.8167 6.078C16.4541 6.078 13.7184 8.81359 13.7184 12.1763V15.4131H10.495C7.13238 15.4131 4.3967 18.1489 4.3967 21.5115C4.3967 24.8741 7.13238 27.6099 10.495 27.6099C13.8577 27.6099 16.5933 24.8741 16.5933 21.5115V18.2746H19.8167C23.1794 18.2746 25.9152 15.539 25.9152 12.1763C25.9152 8.81359 23.1794 6.078 19.8167 6.078V6.078ZM13.741 21.5115C13.741 23.3013 12.2849 24.7574 10.495 24.7574C8.70518 24.7574 7.24908 23.3013 7.24908 21.5115C7.24908 19.7217 8.70518 18.2656 10.495 18.2656H13.7184V18.2746H13.741V21.5115V21.5115ZM19.8167 15.4223H16.5933V15.4131H16.5709V12.1763C16.5709 10.3865 18.027 8.93039 19.8167 8.93039C21.6065 8.93039 23.0627 10.3865 23.0627 12.1763C23.0627 13.9662 21.6065 15.4223 19.8167 15.4223V15.4223Z" fill="#3C6EB4"/>
<path d="M21.1645 6.26306C20.6913 6.13935 20.3279 6.08167 19.8167 6.08167C16.4472 6.08167 13.7153 8.81359 13.7153 12.1829V15.4169H11.16C10.3633 15.4169 9.71936 16.043 9.71987 16.8384C9.71987 17.6287 10.3567 18.2575 11.145 18.2575L13.2606 18.2579C13.5118 18.2579 13.7155 18.461 13.7155 18.7118V21.5101C13.7124 23.2866 12.2714 24.7255 10.495 24.7255C9.89324 24.7255 9.74425 24.6467 9.33343 24.6467C8.47045 24.6467 7.89307 25.2252 7.89307 26.0206C7.89327 26.6786 8.45714 27.2443 9.14716 27.4249C9.62044 27.5486 9.98383 27.6064 10.495 27.6064C13.8645 27.6064 16.5964 24.8745 16.5964 21.505V18.2712H19.1517C19.9484 18.2712 20.5923 17.6451 20.5918 16.8497C20.5918 16.0593 19.955 15.4306 19.1667 15.4306L17.0511 15.4302C16.9305 15.4303 16.8149 15.3825 16.7296 15.2974C16.6443 15.2123 16.5963 15.0967 16.5962 14.9762V12.1779C16.5993 10.4014 18.0403 8.96249 19.8167 8.96249C20.4185 8.96249 20.5675 9.0414 20.9783 9.0414C21.8413 9.0414 22.4186 8.4628 22.4186 7.66746C22.4184 7.00934 21.8546 6.44363 21.1645 6.26306Z" fill="white"/>
</g>
<path d="M40.2589 22V11.0909H47.4819V12.9925H42.5654V15.592H47.0025V17.4936H42.5654V22H40.2589ZM52.2988 22.1598C51.4572 22.1598 50.7328 21.9893 50.1255 21.6484C49.5218 21.304 49.0566 20.8175 48.7299 20.1889C48.4032 19.5568 48.2399 18.8093 48.2399 17.9464C48.2399 17.1048 48.4032 16.3661 48.7299 15.7305C49.0566 15.0948 49.5165 14.5994 50.1095 14.2443C50.7061 13.8892 51.4057 13.7116 52.2082 13.7116C52.748 13.7116 53.2505 13.7987 53.7157 13.9727C54.1845 14.1431 54.5928 14.4006 54.9408 14.745C55.2924 15.0895 55.5658 15.5227 55.7612 16.0447C55.9565 16.5632 56.0541 17.1705 56.0541 17.8665V18.4897H49.1454V17.0835H53.9181C53.9181 16.7567 53.8471 16.4673 53.7051 16.2152C53.563 15.9631 53.3659 15.766 53.1138 15.6239C52.8652 15.4783 52.5758 15.4055 52.2455 15.4055C51.9011 15.4055 51.5957 15.4854 51.3293 15.6452C51.0666 15.8015 50.8606 16.0128 50.7114 16.2791C50.5623 16.5419 50.4859 16.8349 50.4824 17.158V18.495C50.4824 18.8999 50.557 19.2496 50.7061 19.5444C50.8588 19.8391 51.0737 20.0664 51.3506 20.2262C51.6276 20.386 51.9561 20.4659 52.3361 20.4659C52.5882 20.4659 52.819 20.4304 53.0286 20.3594C53.2381 20.2884 53.4174 20.1818 53.5666 20.0398C53.7157 19.8977 53.8293 19.7237 53.9075 19.5178L56.0062 19.6562C55.8997 20.1605 55.6813 20.6009 55.351 20.9773C55.0243 21.3501 54.6017 21.6413 54.0832 21.8509C53.5683 22.0568 52.9735 22.1598 52.2988 22.1598ZM60.7299 22.1332C60.1084 22.1332 59.5456 21.9734 59.0413 21.6538C58.5406 21.3306 58.1429 20.8565 57.8481 20.2315C57.5569 19.603 57.4113 18.8324 57.4113 17.9197C57.4113 16.9822 57.5623 16.2028 57.8641 15.5813C58.1659 14.9563 58.5672 14.4893 59.0679 14.1804C59.5722 13.8679 60.1244 13.7116 60.7245 13.7116C61.1826 13.7116 61.5644 13.7898 61.8698 13.946C62.1787 14.0987 62.4273 14.2905 62.6155 14.5213C62.8073 14.7486 62.9529 14.9723 63.0523 15.1925H63.1216V11.0909H65.3854V22H63.1482V20.6896H63.0523C62.9458 20.9169 62.7949 21.1424 62.5995 21.3661C62.4078 21.5863 62.1574 21.7692 61.8485 21.9148C61.5431 22.0604 61.1702 22.1332 60.7299 22.1332ZM61.449 20.3274C61.8147 20.3274 62.1237 20.228 62.3758 20.0291C62.6315 19.8267 62.8268 19.5444 62.9618 19.1822C63.1003 18.82 63.1695 18.3956 63.1695 17.9091C63.1695 17.4226 63.102 17 62.9671 16.6413C62.8321 16.2827 62.6368 16.0057 62.3811 15.8104C62.1255 15.6151 61.8147 15.5174 61.449 15.5174C61.0761 15.5174 60.7618 15.6186 60.5061 15.821C60.2505 16.0234 60.0569 16.304 59.9255 16.6626C59.7941 17.0213 59.7284 17.4368 59.7284 17.9091C59.7284 18.3849 59.7941 18.8058 59.9255 19.1715C60.0605 19.5337 60.254 19.8178 60.5061 20.0238C60.7618 20.2262 61.0761 20.3274 61.449 20.3274ZM71.1278 22.1598C70.3004 22.1598 69.5849 21.984 68.9812 21.6325C68.381 21.2773 67.9176 20.7837 67.5909 20.1516C67.2642 19.516 67.1008 18.7791 67.1008 17.9411C67.1008 17.0959 67.2642 16.3572 67.5909 15.7251C67.9176 15.0895 68.381 14.5959 68.9812 14.2443C69.5849 13.8892 70.3004 13.7116 71.1278 13.7116C71.9552 13.7116 72.669 13.8892 73.2692 14.2443C73.8728 14.5959 74.338 15.0895 74.6648 15.7251C74.9915 16.3572 75.1548 17.0959 75.1548 17.9411C75.1548 18.7791 74.9915 19.516 74.6648 20.1516C74.338 20.7837 73.8728 21.2773 73.2692 21.6325C72.669 21.984 71.9552 22.1598 71.1278 22.1598ZM71.1385 20.402C71.5149 20.402 71.8292 20.2955 72.0813 20.0824C72.3334 19.8658 72.5234 19.571 72.6513 19.1982C72.7826 18.8253 72.8483 18.4009 72.8483 17.9251C72.8483 17.4492 72.7826 17.0249 72.6513 16.652C72.5234 16.2791 72.3334 15.9844 72.0813 15.7678C71.8292 15.5511 71.5149 15.4428 71.1385 15.4428C70.7585 15.4428 70.4389 15.5511 70.1797 15.7678C69.924 15.9844 69.7304 16.2791 69.5991 16.652C69.4712 17.0249 69.4073 17.4492 69.4073 17.9251C69.4073 18.4009 69.4712 18.8253 69.5991 19.1982C69.7304 19.571 69.924 19.8658 70.1797 20.0824C70.4389 20.2955 70.7585 20.402 71.1385 20.402ZM76.8103 22V13.8182H79.0102V15.2457H79.0955C79.2446 14.7379 79.495 14.3544 79.8465 14.0952C80.1981 13.8324 80.6029 13.701 81.061 13.701C81.1747 13.701 81.2972 13.7081 81.4286 13.7223C81.56 13.7365 81.6754 13.756 81.7748 13.7809V15.7944C81.6683 15.7624 81.5209 15.734 81.3327 15.7092C81.1445 15.6843 80.9722 15.6719 80.816 15.6719C80.4822 15.6719 80.1839 15.7447 79.9211 15.8903C79.6619 16.0323 79.4559 16.2312 79.3032 16.4869C79.1541 16.7425 79.0795 17.0373 79.0795 17.3711V22H76.8103ZM85.2267 22.1545C84.7047 22.1545 84.2395 22.0639 83.8311 21.8828C83.4227 21.6982 83.0996 21.4265 82.8617 21.0678C82.6273 20.7056 82.5101 20.2546 82.5101 19.7148C82.5101 19.2603 82.5936 18.8786 82.7605 18.5696C82.9274 18.2607 83.1546 18.0121 83.4423 17.8239C83.7299 17.6357 84.0566 17.4936 84.4224 17.3977C84.7917 17.3018 85.1788 17.2344 85.5836 17.1953C86.0595 17.1456 86.443 17.0994 86.7342 17.0568C87.0254 17.0107 87.2367 16.9432 87.3681 16.8544C87.4995 16.7656 87.5651 16.6342 87.5651 16.4602V16.4283C87.5651 16.0909 87.4586 15.8299 87.2455 15.6452C87.036 15.4606 86.7377 15.3683 86.3507 15.3683C85.9423 15.3683 85.6173 15.4588 85.3759 15.6399C85.1344 15.8175 84.9746 16.0412 84.8965 16.3111L82.7977 16.1406C82.9043 15.6435 83.1138 15.2138 83.4263 14.8516C83.7388 14.4858 84.1419 14.2053 84.6355 14.0099C85.1326 13.8111 85.7079 13.7116 86.3613 13.7116C86.8159 13.7116 87.2509 13.7649 87.6664 13.8714C88.0854 13.978 88.4565 14.1431 88.7796 14.3668C89.1063 14.5906 89.3638 14.8782 89.552 15.2298C89.7402 15.5778 89.8343 15.995 89.8343 16.4815V22H87.6823V20.8654H87.6184C87.487 21.1211 87.3112 21.3466 87.0911 21.5419C86.8709 21.7337 86.6063 21.8846 86.2974 21.9947C85.9884 22.1012 85.6316 22.1545 85.2267 22.1545ZM85.8766 20.5884C86.2104 20.5884 86.5051 20.5227 86.7608 20.3913C87.0165 20.2564 87.2171 20.0753 87.3627 19.848C87.5083 19.6207 87.5811 19.3633 87.5811 19.0756V18.2074C87.5101 18.2536 87.4124 18.2962 87.2882 18.3352C87.1674 18.3707 87.0307 18.4045 86.878 18.4364C86.7253 18.4648 86.5726 18.4915 86.4199 18.5163C86.2672 18.5376 86.1287 18.5572 86.0044 18.5749C85.7381 18.614 85.5055 18.6761 85.3066 18.7614C85.1078 18.8466 84.9533 18.962 84.8432 19.1076C84.7331 19.2496 84.6781 19.4272 84.6781 19.6403C84.6781 19.9492 84.7899 20.1854 85.0137 20.3487C85.2409 20.5085 85.5286 20.5884 85.8766 20.5884Z" fill="white"/>
<defs>
<linearGradient id="paint0_linear_443_58" x1="0" y1="0" x2="0" y2="32" gradientUnits="userSpaceOnUse">
<stop stop-color="#BBBBBB" stop-opacity="0.1"/>
<stop offset="1" stop-opacity="0.1"/>
</linearGradient>
<clipPath id="clip0_443_58">
<rect width="26" height="26" fill="white" transform="translate(3 3)"/>
</clipPath>
</defs>
</svg>
