<svg width="105" height="32" viewBox="0 0 105 32" fill="none" xmlns="http://www.w3.org/2000/svg">
<path d="M100 0H31V32H100C102.761 32 105 29.7614 105 27V5C105 2.23858 102.761 0 100 0Z" fill="#0F1418"/>
<path d="M5 0.5H30.5V31.5H5C2.51472 31.5 0.5 29.4853 0.5 27V5C0.5 2.51472 2.51472 0.5 5 0.5Z" fill="white" stroke="#1C2125"/>
<path d="M53.3285 12.4233H49.6224V15.0015H53.0282V16.9204H49.6224V21H47.2567V10.4971H53.3285V12.4233ZM56.4528 12.3135C56.0622 12.3135 55.7424 12.1987 55.4933 11.9692C55.2443 11.7349 55.1198 11.4492 55.1198 11.1123C55.1198 10.7656 55.2443 10.4824 55.4933 10.2627C55.7424 10.043 56.0622 9.93311 56.4528 9.93311C56.8483 9.93311 57.1681 10.043 57.4123 10.2627C57.6613 10.4824 57.7858 10.7656 57.7858 11.1123C57.7858 11.4639 57.6613 11.752 57.4123 11.9766C57.1681 12.2012 56.8483 12.3135 56.4528 12.3135ZM57.5954 21H55.2809V13.5H57.5954V21ZM67.0771 20.1431C67.0771 21.5347 66.6743 22.6113 65.8687 23.373C65.063 24.1396 63.896 24.5229 62.3677 24.5229C61.3569 24.5229 60.5562 24.3789 59.9653 24.0908V22.1426C60.7368 22.5918 61.5156 22.8164 62.3018 22.8164C63.083 22.8164 63.6885 22.6089 64.1182 22.1938C64.5479 21.7837 64.7627 21.2246 64.7627 20.5166V19.9233H64.7334C64.2061 20.7632 63.4272 21.1831 62.397 21.1831C61.4399 21.1831 60.6807 20.8462 60.1191 20.1724C59.5576 19.4985 59.2769 18.5952 59.2769 17.4624C59.2769 16.1929 59.5894 15.1846 60.2144 14.4375C60.8394 13.6904 61.6621 13.3169 62.6826 13.3169C63.5957 13.3169 64.2793 13.6685 64.7334 14.3716H64.7627V13.5H67.0771V20.1431ZM64.792 17.3965V16.8032C64.792 16.3296 64.6504 15.9268 64.3672 15.5947C64.0889 15.2578 63.7251 15.0894 63.2759 15.0894C62.7632 15.0894 62.3604 15.2896 62.0674 15.6899C61.7744 16.0903 61.6279 16.6543 61.6279 17.3818C61.6279 18.0068 61.7671 18.5024 62.0454 18.8687C62.3237 19.23 62.7046 19.4106 63.188 19.4106C63.6665 19.4106 64.0522 19.2275 64.3452 18.8613C64.6431 18.4902 64.792 18.002 64.792 17.3965ZM81.0999 21H78.7928V16.7227C78.7928 15.6338 78.3924 15.0894 77.5916 15.0894C77.2108 15.0894 76.9007 15.2529 76.6614 15.5801C76.4222 15.9072 76.3026 16.3149 76.3026 16.8032V21H73.9881V16.6787C73.9881 15.6191 73.595 15.0894 72.8089 15.0894C72.4134 15.0894 72.096 15.2456 71.8568 15.5581C71.6224 15.8706 71.5052 16.2954 71.5052 16.8325V21H69.1907V13.5H71.5052V14.6719H71.5345C71.7738 14.2715 72.1082 13.9468 72.5379 13.6978C72.9725 13.4438 73.4461 13.3169 73.9588 13.3169C75.0184 13.3169 75.7435 13.7832 76.1341 14.7158C76.7054 13.7832 77.5452 13.3169 78.6536 13.3169C80.2845 13.3169 81.0999 14.3228 81.0999 16.3345V21ZM89.3512 21H87.1613V19.9233H87.132C86.629 20.7632 85.8844 21.1831 84.8981 21.1831C84.1705 21.1831 83.5968 20.978 83.1769 20.5679C82.7619 20.1528 82.5543 19.6011 82.5543 18.9126C82.5543 17.4575 83.4162 16.6177 85.1398 16.3931L87.1759 16.1221C87.1759 15.3018 86.7316 14.8916 85.8429 14.8916C84.9494 14.8916 84.0997 15.1577 83.2941 15.6899V13.9468C83.6163 13.7808 84.0558 13.6343 84.6124 13.5073C85.174 13.3804 85.6842 13.3169 86.1432 13.3169C88.2819 13.3169 89.3512 14.3838 89.3512 16.5176V21ZM87.1759 17.9531V17.4478L85.8136 17.6235C85.0617 17.7212 84.6857 18.0605 84.6857 18.6416C84.6857 18.9053 84.776 19.1226 84.9567 19.2935C85.1422 19.4595 85.3913 19.5425 85.7038 19.5425C86.1383 19.5425 86.4923 19.3936 86.7658 19.0957C87.0392 18.793 87.1759 18.4121 87.1759 17.9531Z" fill="white"/>
<path d="M100 0H5C2.23858 0 0 2.23858 0 5V27C0 29.7614 2.23858 32 5 32H100C102.761 32 105 29.7614 105 27V5C105 2.23858 102.761 0 100 0Z" fill="url(#paint0_linear_20_2)"/>
<path d="M17.1667 11.9167H12.5C10.2449 11.9167 8.41669 10.0885 8.41669 7.83333C8.41669 5.57817 10.2449 3.75 12.5 3.75H17.1667V11.9167Z" fill="#E64A19"/>
<path d="M16.5834 20.0833H12.5C10.2449 20.0833 8.41669 18.2551 8.41669 16C8.41669 13.7448 10.2449 11.9166 12.5 11.9166H16.5834V20.0833Z" fill="#7C4DFF"/>
<path d="M12.5 28.25C10.2449 28.25 8.41669 26.4219 8.41669 24.1667C8.41669 21.9115 10.2449 20.0834 12.5 20.0834H16.5834V24.1667C16.5834 26.4219 14.7552 28.25 12.5 28.25Z" fill="#66BB6A"/>
<path d="M20.6666 11.9167H16.5833V3.75H20.6666C22.9218 3.75 24.75 5.57817 24.75 7.83333C24.75 10.0885 22.9218 11.9167 20.6666 11.9167Z" fill="#FF7043"/>
<path d="M20.6666 20.0833C22.9218 20.0833 24.75 18.2551 24.75 16C24.75 13.7448 22.9218 11.9166 20.6666 11.9166C18.4115 11.9166 16.5833 13.7448 16.5833 16C16.5833 18.2551 18.4115 20.0833 20.6666 20.0833Z" fill="#29B6F6"/>
<defs>
<linearGradient id="paint0_linear_20_2" x1="0" y1="0" x2="0" y2="32" gradientUnits="userSpaceOnUse">
<stop stop-color="#BBBBBB" stop-opacity="0.1"/>
<stop offset="1" stop-opacity="0.1"/>
</linearGradient>
</defs>
</svg>
