<svg width="92" height="32" viewBox="0 0 92 32" fill="none" xmlns="http://www.w3.org/2000/svg">
<path d="M87 0H31V32H87C89.7614 32 92 29.7614 92 27V5C92 2.23858 89.7614 0 87 0Z" fill="#0F1418"/>
<path d="M31 0H5C2.23858 0 0 2.23858 0 5V27C0 29.7614 2.23858 32 5 32H31V0Z" fill="white"/>
<path d="M87 0H5C2.23858 0 0 2.23858 0 5V27C0 29.7614 2.23857 32 5 32H87C89.7614 32 92 29.7614 92 27V5C92 2.23858 89.7614 0 87 0Z" fill="url(#paint0_linear_444_68)"/>
<path d="M52.5898 27.5341C51.5607 27.5341 50.6783 27.3924 49.9425 27.109C49.2116 26.8306 48.63 26.4503 48.1974 25.968C47.7649 25.4858 47.484 24.9439 47.3548 24.3423L50.293 23.9471C50.3825 24.1758 50.5241 24.3896 50.718 24.5884C50.9119 24.7873 51.168 24.9464 51.4861 25.0657C51.8093 25.19 52.2021 25.2521 52.6644 25.2521C53.3555 25.2521 53.9247 25.0831 54.3722 24.745C54.8246 24.4119 55.0508 23.8526 55.0508 23.0671V20.9716H54.9165C54.7773 21.2898 54.5685 21.5906 54.2901 21.8739C54.0117 22.1573 53.6538 22.3885 53.2163 22.5675C52.7788 22.7464 52.2567 22.8359 51.6502 22.8359C50.7901 22.8359 50.0071 22.6371 49.3011 22.2393C48.6001 21.8366 48.0408 21.2227 47.6232 20.3974C47.2106 19.5671 47.0043 18.5181 47.0043 17.2504C47.0043 15.9528 47.2156 14.869 47.6381 13.9989C48.0607 13.1289 48.6225 12.4776 49.3235 12.0451C50.0295 11.6126 50.8026 11.3963 51.6428 11.3963C52.2841 11.3963 52.821 11.5057 53.2536 11.7244C53.6861 11.9382 54.0341 12.2067 54.2976 12.5298C54.5661 12.848 54.7724 13.1612 54.9165 13.4695H55.0359V11.5455H58.1903V23.1119C58.1903 24.0863 57.9517 24.9016 57.4744 25.5579C56.9972 26.2141 56.3359 26.7063 55.4908 27.0344C54.6506 27.3675 53.6836 27.5341 52.5898 27.5341ZM52.657 20.4496C53.169 20.4496 53.6016 20.3228 53.9545 20.0692C54.3125 19.8107 54.5859 19.4428 54.7749 18.9656C54.9687 18.4833 55.0657 17.9066 55.0657 17.2354C55.0657 16.5643 54.9712 15.9826 54.7823 15.4904C54.5934 14.9933 54.32 14.608 53.962 14.3345C53.604 14.0611 53.169 13.9244 52.657 13.9244C52.1349 13.9244 51.695 14.0661 51.337 14.3494C50.979 14.6278 50.7081 15.0156 50.5241 15.5128C50.3402 16.0099 50.2482 16.5842 50.2482 17.2354C50.2482 17.8967 50.3402 18.4684 50.5241 18.9506C50.7131 19.4279 50.984 19.7983 51.337 20.0618C51.695 20.3203 52.1349 20.4496 52.657 20.4496ZM60.9704 23V11.5455H64.1472V23H60.9704ZM62.5663 10.0689C62.094 10.0689 61.6888 9.91229 61.3507 9.59908C61.0176 9.28089 60.8511 8.90057 60.8511 8.4581C60.8511 8.0206 61.0176 7.64524 61.3507 7.33203C61.6888 7.01385 62.094 6.85476 62.5663 6.85476C63.0386 6.85476 63.4413 7.01385 63.7744 7.33203C64.1124 7.64524 64.2815 8.0206 64.2815 8.4581C64.2815 8.90057 64.1124 9.28089 63.7744 9.59908C63.4413 9.91229 63.0386 10.0689 62.5663 10.0689ZM73.0368 11.5455V13.9318H66.1387V11.5455H73.0368ZM67.7047 8.80114H70.8816V19.4801C70.8816 19.7734 70.9263 20.0021 71.0158 20.1662C71.1053 20.3253 71.2296 20.4371 71.3887 20.5018C71.5527 20.5664 71.7417 20.5987 71.9554 20.5987C72.1046 20.5987 72.2537 20.5863 72.4029 20.5614C72.552 20.5316 72.6664 20.5092 72.7459 20.4943L73.2456 22.8583C73.0865 22.908 72.8628 22.9652 72.5744 23.0298C72.286 23.0994 71.9355 23.1417 71.5229 23.1566C70.7573 23.1864 70.0861 23.0845 69.5094 22.8509C68.9377 22.6172 68.4927 22.2543 68.1745 21.7621C67.8564 21.2699 67.6998 20.6484 67.7047 19.8977V8.80114Z" fill="white"/>
<g clip-path="url(#clip0_444_68)">
<path d="M27.1961 14.2294L16.4311 3.46494C15.8116 2.84502 14.8061 2.84502 14.1856 3.46494L11.9506 5.70049L14.7862 8.53604C15.4454 8.31357 16.2008 8.46279 16.726 8.98799C17.254 9.5165 17.4022 10.2784 17.1739 10.9397L19.9067 13.6729C20.5678 13.445 21.3309 13.5923 21.8586 14.1212C22.5969 14.8589 22.5969 16.0548 21.8586 16.7929C21.1204 17.5312 19.9249 17.5312 19.1862 16.7929C18.6311 16.2374 18.4938 15.422 18.7751 14.738L16.2266 12.1894L16.2262 18.8966C16.4063 18.9854 16.576 19.1042 16.726 19.2536C17.4641 19.9913 17.4641 21.1868 16.726 21.9261C15.9879 22.6638 14.7917 22.6638 14.0544 21.9261C13.3165 21.187 13.2559 19.9915 13.9936 19.2536C14.176 19.0714 14.3559 18.9337 14.5512 18.8415V12.0722C14.3559 11.98 14.1762 11.8433 13.9934 11.6599C13.4346 11.1013 13.3301 10.281 13.6169 9.59424L10.837 6.79873L3.46314 14.1796C2.84302 14.8001 2.84693 15.8056 3.46705 16.4257L14.2338 27.1901C14.8536 27.8101 15.8598 27.8101 16.4805 27.1901L27.1954 16.4757C27.8155 15.8554 27.8161 14.8493 27.1961 14.2294V14.2294Z" fill="#F34F29"/>
</g>
<defs>
<linearGradient id="paint0_linear_444_68" x1="0" y1="0" x2="0" y2="32" gradientUnits="userSpaceOnUse">
<stop stop-color="#BBBBBB" stop-opacity="0.1"/>
<stop offset="1" stop-opacity="0.1"/>
</linearGradient>
<clipPath id="clip0_444_68">
<rect width="25" height="25" fill="white" transform="translate(3 3)"/>
</clipPath>
</defs>
</svg>
