<svg width="107" height="32" viewBox="0 0 107 32" fill="none" xmlns="http://www.w3.org/2000/svg">
<path d="M102 0H31V32H102C104.761 32 107 29.7614 107 27V5C107 2.23858 104.761 0 102 0Z" fill="#0F1418"/>
<path d="M5 0.5H30.5V31.5H5C2.51472 31.5 0.5 29.4853 0.5 27V5C0.5 2.51472 2.51472 0.5 5 0.5Z" fill="white" stroke="#1C2125"/>
<path d="M61.8965 21.2969C60.8711 21.8877 59.5967 22.1831 58.0733 22.1831C56.3838 22.1831 55.0508 21.7168 54.0742 20.7842C53.1026 19.8467 52.6167 18.5576 52.6167 16.917C52.6167 15.2666 53.1489 13.9214 54.2134 12.8813C55.2779 11.8413 56.6939 11.3213 58.4614 11.3213C59.5747 11.3213 60.5562 11.4751 61.4058 11.7827V14.002C60.5952 13.5332 59.604 13.2988 58.4321 13.2988C57.4507 13.2988 56.6499 13.6187 56.0298 14.2583C55.4146 14.8931 55.107 15.7427 55.107 16.8071C55.107 17.8862 55.3828 18.7212 55.9346 19.312C56.4912 19.9028 57.2407 20.1982 58.1831 20.1982C58.7495 20.1982 59.1987 20.1177 59.5308 19.9565V17.9058H57.4287V16.0161H61.8965V21.2969ZM71.283 22H68.9759V20.8574H68.9393C68.368 21.7412 67.6038 22.1831 66.6468 22.1831C64.9085 22.1831 64.0394 21.1309 64.0394 19.0264V14.5H66.3465V18.8213C66.3465 19.8809 66.7664 20.4106 67.6063 20.4106C68.0213 20.4106 68.3534 20.2666 68.6024 19.9785C68.8514 19.6855 68.9759 19.29 68.9759 18.792V14.5H71.283V22ZM75.7331 22H73.4186V10.8965H75.7331V22ZM80.2051 21.1284H80.1758V25.4497H77.8613V14.5H80.1758V15.6279H80.2051C80.7763 14.7539 81.5796 14.3169 82.6147 14.3169C83.5864 14.3169 84.3359 14.6514 84.8633 15.3203C85.3955 15.9844 85.6616 16.8901 85.6616 18.0376C85.6616 19.2876 85.3515 20.291 84.7314 21.0479C84.1162 21.8047 83.2959 22.1831 82.2705 22.1831C81.3672 22.1831 80.6787 21.8315 80.2051 21.1284ZM80.1391 18.0522V18.6528C80.1391 19.1704 80.2759 19.5928 80.5493 19.9199C80.8227 20.2471 81.1816 20.4106 81.626 20.4106C82.1533 20.4106 82.561 20.208 82.8491 19.8027C83.1421 19.3926 83.2886 18.814 83.2886 18.0669C83.2886 16.7485 82.7759 16.0894 81.7505 16.0894C81.2768 16.0894 80.8887 16.27 80.5859 16.6313C80.2881 16.9878 80.1391 17.4614 80.1391 18.0522Z" fill="white"/>
<path d="M102 0H5C2.23858 0 0 2.23858 0 5V27C0 29.7614 2.23858 32 5 32H102C104.761 32 107 29.7614 107 27V5C107 2.23858 104.761 0 102 0Z" fill="url(#paint0_linear_33_4)"/>
<path d="M21.2743 3.00017C21.2394 3.00154 21.2122 3.0114 21.194 3.02895L18.01 6.85275L17.3605 9.11081C16.9191 9.09608 16.4633 9.0905 15.9962 9.0905C12.687 9.0905 10 9.44498 10 9.88437C10 10.933 21.9908 10.933 21.9908 9.88437C21.9908 9.55938 20.5553 9.28482 18.4854 9.15482L18.9994 7.29624L21.9774 3.67387L21.9824 3.66879C22.0493 3.59859 21.9188 3.3879 21.7062 3.2033C21.5468 3.0642 21.3791 2.99607 21.2743 3.00017ZM17.1161 9.99948L17.1044 10.035C17.0993 10.0394 17.0994 10.0451 17.0994 10.0503C17.0994 10.1153 17.359 10.1687 17.6752 10.1687C17.9915 10.1687 18.2528 10.1153 18.2528 10.0503L18.2628 10.0096C18.3459 10.04 18.3917 10.0747 18.3917 10.1146C18.3917 10.2194 18.0705 10.3051 17.6702 10.3008C17.2811 10.3008 16.9588 10.2211 16.9588 10.1163C16.9588 10.0712 17.0227 10.0298 17.1161 9.99948ZM21.9238 10.2974C20.3374 11.1528 11.6711 11.1586 10.0787 10.3092L10.7834 16.5773C11.0894 15.578 11.8632 14.229 12.8592 13.8199C13.1857 13.6847 13.5173 13.6853 13.8284 13.8656C14.0984 14.0155 14.3267 14.3299 14.3524 14.4547C14.4149 14.7797 14.2491 14.9083 14.1197 14.9083C13.9637 14.9083 13.8445 14.6796 13.7665 14.5444C13.5539 14.1795 13.2321 14.1638 12.8893 14.4039C12.531 14.6535 12.2198 15.0732 12.0021 15.4381C11.7373 15.8775 11.5139 16.362 11.3794 16.8464C11.3014 17.1264 11.2301 17.5749 11.3492 17.84C11.4015 17.9501 11.4785 18.0195 11.6037 18.0195C11.8634 18.0195 12.2406 17.6901 12.4223 17.5151C12.6554 17.2906 12.9561 16.9406 13.0701 16.7161L13.3413 15.9425C13.4758 15.6028 13.8535 15.6626 13.8535 15.9425C13.8535 16.4521 13.6628 16.622 13.3363 17.6759C13.0354 18.65 12.9412 18.9657 12.9412 18.9657C12.9052 19.1052 12.7648 19.3398 12.6148 19.3398C12.5522 19.3398 12.5066 19.3187 12.4809 19.2788C12.4286 19.2086 12.4339 19.016 12.439 18.9657C12.4493 18.8062 12.765 17.8563 12.8173 17.7063C12.7136 17.8164 12.605 17.9272 12.4859 18.0364C12.2056 18.2912 11.755 18.6255 11.371 18.6255C11.1944 18.6255 11.0814 18.5798 10.9726 18.5053L11.366 22.4814C11.4697 22.731 13.3997 23.3362 15.941 23.3362C18.4874 23.3362 20.4158 22.7267 20.5143 22.4814L21.0801 17.7571C20.7844 18.0171 20.4428 18.3374 20.064 18.4968C19.7838 18.6121 19.1617 18.6857 19.1617 18.2107C19.1617 17.9508 19.6341 17.4721 19.9083 17.1376C19.9812 17.0526 20.1511 16.8431 20.1511 16.733C20.1511 16.5883 19.8408 16.6217 19.5451 16.8566C19.3788 16.9918 19.2225 17.1725 19.0931 17.3424C18.8703 17.6423 18.7514 17.901 18.6528 18.116C18.3314 18.8249 18.4405 18.5455 18.1808 19.2145C17.9211 19.8792 17.9636 19.8035 17.9113 19.9136C17.865 20.0089 17.7971 20.0893 17.7037 20.1387C17.6051 20.189 17.4704 20.1833 17.3873 20.1235C17.341 20.0932 17.3187 20.0283 17.3187 19.939C17.3187 19.8939 17.3251 19.8486 17.3354 19.8036C17.4134 19.4985 17.7401 18.9 18.1138 18.0906C18.197 17.906 18.1651 17.9607 18.154 17.9755C17.8326 18.2753 17.5882 18.4205 17.4074 18.5002C17.1066 18.6302 16.7329 18.6299 16.6558 18.2954C16.6506 18.2755 16.6509 18.2544 16.6457 18.2344C16.0338 18.6938 15.3858 18.8188 15.6095 17.8299C15.3713 18.2398 14.9552 18.5747 14.4461 18.5747C14.2336 18.5747 14.078 18.5054 14.0008 18.3208C13.8817 18.046 14.068 17.5754 14.2385 17.1308C14.3268 16.9063 14.4474 16.6363 14.6085 16.3217C14.6916 16.1518 14.8253 16.0515 15.0019 16.0966C15.0327 16.107 15.0599 16.1174 15.0856 16.1321C15.2201 16.2223 15.1684 16.3558 15.1006 16.491C14.9035 16.8654 14.7325 17.1403 14.6185 17.5303C14.5723 17.695 14.5138 17.9805 14.6955 17.9805C14.8198 17.9805 14.9389 17.9401 15.0538 17.8604C15.292 17.6905 15.4839 17.4363 15.6296 17.1867C15.7333 17.0073 15.8583 16.7724 15.9209 16.5722C15.9466 16.4873 15.9786 16.4073 16.0146 16.3319C16.0721 16.2071 16.1487 16.078 16.2842 16.078C16.3519 16.078 16.4079 16.103 16.4499 16.1524C16.5382 16.2625 16.5188 16.3756 16.4716 16.496C16.3679 16.776 16.2283 17.0263 16.1134 17.3305C16.0457 17.5056 15.9728 17.7299 15.9728 17.9145C15.9728 18.0844 16.1649 18.044 16.326 17.9738C16.4503 17.9192 16.5746 17.8353 16.6792 17.7503C16.7418 17.5059 16.7252 17.56 18.0485 14.3429C18.1162 14.1783 18.2406 14.1077 18.3649 14.1077C18.4275 14.1077 18.4784 14.1288 18.5306 14.1635C18.6189 14.2285 18.6202 14.3667 18.5842 14.4716C18.5482 14.5669 18.5521 14.537 18.3499 14.9963C18.0799 15.6004 17.9043 16.0362 17.6652 16.5908C17.5666 16.8205 17.2663 17.5348 17.2149 17.7046C17.184 17.8147 17.1468 17.9941 17.2668 17.9941C17.547 17.9941 18.2682 17.3393 18.4654 17.1444C18.4756 17.1296 18.4917 17.1243 18.5122 17.1139C18.5431 17.0185 18.5736 16.9298 18.5993 16.8397C18.6721 16.6499 18.7401 16.4286 18.8755 16.2743C18.9166 16.224 18.963 16.1947 19.0144 16.1947C19.1593 16.1947 19.232 16.2541 19.232 16.3945C19.232 16.4491 19.1966 16.6497 19.1751 16.7042C19.248 16.6297 19.3247 16.5553 19.4078 16.4808C20.186 15.7866 20.7403 16.1408 20.7403 16.491C20.7403 16.8602 20.2792 17.3738 20.0255 17.6589C19.9424 17.7543 19.7712 17.9286 19.766 17.9789C19.766 18.0439 19.8122 18.0703 19.8799 18.0703C19.9836 18.0703 20.2119 17.8948 20.295 17.835C20.5547 17.64 20.906 17.3405 21.1555 17.1308L21.9238 10.2974ZM11.6539 22.9605L12.4273 24.23L12.7286 28.196C12.7286 28.6406 14.1962 29 16.0012 29C17.8063 29 19.2739 28.6406 19.2739 28.196L19.5133 24.1894L20.2431 22.9605C18.1887 23.7951 13.7915 23.8245 11.6539 22.9605Z" fill="#DC3E15"/>
<defs>
<linearGradient id="paint0_linear_33_4" x1="0" y1="0" x2="0" y2="32" gradientUnits="userSpaceOnUse">
<stop stop-color="#BBBBBB" stop-opacity="0.1"/>
<stop offset="1" stop-opacity="0.1"/>
</linearGradient>
</defs>
</svg>
