<svg width="92" height="32" viewBox="0 0 92 32" fill="none" xmlns="http://www.w3.org/2000/svg">
<path d="M87 0H31V32H87C89.7614 32 92 29.7614 92 27V5C92 2.23858 89.7614 0 87 0Z" fill="#0F1418"/>
<path d="M31 0H5C2.23858 0 0 2.23858 0 5V27C0 29.7614 2.23858 32 5 32H31V0Z" fill="white"/>
<path d="M87 0H5C2.23858 0 0 2.23858 0 5V27C0 29.7614 2.23857 32 5 32H87C89.7614 32 92 29.7614 92 27V5C92 2.23858 89.7614 0 87 0Z" fill="url(#paint0_linear_428_9)"/>
<path d="M51.423 11.0909H53.7028V18.6974C53.7028 19.4006 53.5448 20.0114 53.2288 20.5298C52.9163 21.0483 52.4812 21.4478 51.9237 21.7283C51.3662 22.0089 50.7181 22.1491 49.9795 22.1491C49.3225 22.1491 48.7259 22.0337 48.1897 21.8029C47.657 21.5685 47.2344 21.2134 46.9219 20.7376C46.6094 20.2582 46.455 19.6562 46.4585 18.9318H48.7543C48.7614 19.2195 48.82 19.4663 48.9301 19.6722C49.0437 19.8746 49.1982 20.0309 49.3935 20.141C49.5924 20.2475 49.8268 20.3008 50.0967 20.3008C50.3807 20.3008 50.6204 20.2404 50.8158 20.1197C51.0146 19.9954 51.1655 19.8143 51.2685 19.5763C51.3715 19.3384 51.423 19.0455 51.423 18.6974V11.0909ZM55.7472 22V13.8182H58.0164V22H55.7472ZM56.8871 12.7635C56.5497 12.7635 56.2603 12.6516 56.0188 12.4279C55.7809 12.2006 55.662 11.929 55.662 11.6129C55.662 11.3004 55.7809 11.0323 56.0188 10.8086C56.2603 10.5813 56.5497 10.4677 56.8871 10.4677C57.2245 10.4677 57.5121 10.5813 57.75 10.8086C57.9915 11.0323 58.1122 11.3004 58.1122 11.6129C58.1122 11.929 57.9915 12.2006 57.75 12.4279C57.5121 12.6516 57.2245 12.7635 56.8871 12.7635ZM60.0141 22V13.8182H62.214V15.2457H62.2993C62.4484 14.7379 62.6988 14.3544 63.0503 14.0952C63.4019 13.8324 63.8067 13.701 64.2648 13.701C64.3784 13.701 64.501 13.7081 64.6323 13.7223C64.7637 13.7365 64.8792 13.756 64.9786 13.7809V15.7944C64.872 15.7624 64.7247 15.734 64.5365 15.7092C64.3483 15.6843 64.176 15.6719 64.0198 15.6719C63.686 15.6719 63.3877 15.7447 63.1249 15.8903C62.8657 16.0323 62.6597 16.2312 62.507 16.4869C62.3578 16.7425 62.2833 17.0373 62.2833 17.3711V22H60.0141ZM68.4305 22.1545C67.9085 22.1545 67.4433 22.0639 67.0349 21.8828C66.6265 21.6982 66.3034 21.4265 66.0655 21.0678C65.8311 20.7056 65.7139 20.2546 65.7139 19.7148C65.7139 19.2603 65.7973 18.8786 65.9642 18.5696C66.1312 18.2607 66.3584 18.0121 66.6461 17.8239C66.9337 17.6357 67.2604 17.4936 67.6262 17.3977C67.9955 17.3018 68.3826 17.2344 68.7874 17.1953C69.2633 17.1456 69.6468 17.0994 69.938 17.0568C70.2292 17.0107 70.4405 16.9432 70.5718 16.8544C70.7032 16.7656 70.7689 16.6342 70.7689 16.4602V16.4283C70.7689 16.0909 70.6624 15.8299 70.4493 15.6452C70.2398 15.4606 69.9415 15.3683 69.5544 15.3683C69.1461 15.3683 68.8211 15.4588 68.5797 15.6399C68.3382 15.8175 68.1784 16.0412 68.1003 16.3111L66.0015 16.1406C66.1081 15.6435 66.3176 15.2138 66.6301 14.8516C66.9426 14.4858 67.3456 14.2053 67.8392 14.0099C68.3364 13.8111 68.9117 13.7116 69.5651 13.7116C70.0196 13.7116 70.4547 13.7649 70.8701 13.8714C71.2892 13.978 71.6603 14.1431 71.9834 14.3668C72.3101 14.5906 72.5676 14.8782 72.7558 15.2298C72.944 15.5778 73.0381 15.995 73.0381 16.4815V22H70.8861V20.8654H70.8222C70.6908 21.1211 70.515 21.3466 70.2949 21.5419C70.0747 21.7337 69.8101 21.8846 69.5012 21.9947C69.1922 22.1012 68.8353 22.1545 68.4305 22.1545ZM69.0804 20.5884C69.4142 20.5884 69.7089 20.5227 69.9646 20.3913C70.2203 20.2564 70.4209 20.0753 70.5665 19.848C70.7121 19.6207 70.7849 19.3633 70.7849 19.0756V18.2074C70.7139 18.2536 70.6162 18.2962 70.4919 18.3352C70.3712 18.3707 70.2345 18.4045 70.0818 18.4364C69.9291 18.4648 69.7764 18.4915 69.6237 18.5163C69.471 18.5376 69.3325 18.5572 69.2082 18.5749C68.9419 18.614 68.7093 18.6761 68.5104 18.7614C68.3115 18.8466 68.1571 18.962 68.047 19.1076C67.9369 19.2496 67.8819 19.4272 67.8819 19.6403C67.8819 19.9492 67.9937 20.1854 68.2174 20.3487C68.4447 20.5085 68.7324 20.5884 69.0804 20.5884Z" fill="white"/>
<g clip-path="url(#clip0_428_9)">
<path d="M15.9992 3.41101C15.8937 3.41101 15.7889 3.4491 15.7128 3.52527L3.52526 15.7128C3.36642 15.8716 3.36642 16.1284 3.52526 16.2872L15.7128 28.4747C15.7887 28.5511 15.8919 28.5938 16 28.5938C16.1081 28.5938 16.2113 28.5511 16.2872 28.4747L28.4739 16.2872C28.6328 16.1284 28.6328 15.8716 28.4739 15.7128L16.2864 3.52527C16.2103 3.4491 16.1047 3.41101 15.9992 3.41101ZM16.0722 4.45996L27.613 16L17.6583 25.9547C17.7707 25.523 17.8345 25.0757 17.8345 24.6177C17.8345 23.3438 17.3826 22.1407 16.561 21.1844L21.4582 16.2872C21.617 16.1284 21.617 15.8716 21.4582 15.7128L16.2872 10.5418C15.443 9.69762 14.978 8.57583 14.978 7.38226C14.978 6.29635 15.3671 5.27208 16.0722 4.45996ZM14.3425 6.0437C14.2298 6.47595 14.1655 6.92371 14.1655 7.38226C14.1655 8.65643 14.6179 9.85921 15.4398 10.8156L10.5426 15.7128C10.3838 15.8716 10.3838 16.1284 10.5426 16.2872L11.6915 17.4362C11.8504 17.595 12.1071 17.595 12.266 17.4362C12.4248 17.2777 12.4248 17.0205 12.266 16.8617L11.4043 16L16 11.4035L20.5957 16L16 20.5957L15.7128 20.3085C15.5539 20.1496 15.2971 20.1496 15.1383 20.3085C14.9795 20.4669 14.9795 20.7241 15.1383 20.8829L15.7128 21.4582C16.5569 22.3024 17.022 23.4242 17.022 24.6177C17.022 25.7038 16.6332 26.7286 15.9278 27.5408L4.38696 16L14.3425 6.0437ZM16.8617 6.68878C16.7577 6.68878 16.6537 6.72858 16.5745 6.8078L16 7.38226C15.8416 7.5407 15.8416 7.79829 16 7.95673C16.1584 8.11516 16.416 8.11516 16.5745 7.95673L17.1489 7.38226C17.3078 7.22342 17.3078 6.96624 17.1489 6.8078C17.0697 6.72858 16.9657 6.68878 16.8617 6.68878ZM18.2978 8.12494C18.1938 8.12494 18.0898 8.16474 18.0106 8.24396L17.4361 8.81842C17.2777 8.97686 17.2777 9.23445 17.4361 9.39288C17.5946 9.55132 17.8522 9.55132 18.0106 9.39288L18.5851 8.81842C18.7435 8.65998 18.7435 8.4024 18.5851 8.24396C18.5059 8.16474 18.4018 8.12494 18.2978 8.12494ZM19.734 9.56189C19.63 9.56189 19.526 9.6009 19.4468 9.68011L18.8723 10.2546C18.7139 10.413 18.7139 10.6706 18.8723 10.829C19.0307 10.9875 19.2883 10.9875 19.4468 10.829L20.0212 10.2546C20.1801 10.0961 20.1801 9.83855 20.0212 9.68011C19.942 9.6009 19.838 9.56189 19.734 9.56189ZM21.171 10.9973C21.067 10.9973 20.9629 11.0371 20.8837 11.1163L20.3093 11.6907C20.1508 11.8492 20.1508 12.1068 20.3093 12.2652C20.4677 12.4236 20.7253 12.4236 20.8837 12.2652L21.4582 11.6907C21.6166 11.5323 21.6166 11.2751 21.4582 11.1163C21.379 11.0371 21.275 10.9973 21.171 10.9973ZM22.6071 12.4342C22.5031 12.4342 22.3991 12.474 22.3199 12.5532L21.7454 13.1277C21.587 13.2861 21.587 13.5437 21.7454 13.7021C21.9039 13.8606 22.1614 13.8606 22.3199 13.7021L22.8943 13.1277C23.0528 12.9692 23.0528 12.7117 22.8943 12.5532C22.8151 12.474 22.7111 12.4342 22.6071 12.4342ZM24.0433 13.8704C23.9393 13.8704 23.8353 13.9102 23.756 13.9894L23.1816 14.5638C23.0231 14.7223 23.0231 14.9799 23.1816 15.1383C23.34 15.2967 23.5976 15.2967 23.756 15.1383L24.3305 14.5638C24.4889 14.4054 24.4889 14.1482 24.3305 13.9894C24.2513 13.9102 24.1473 13.8704 24.0433 13.8704ZM25.4802 15.3065C25.3762 15.3065 25.2722 15.3463 25.193 15.4255L24.6177 16C24.4593 16.1584 24.4593 16.416 24.6177 16.5745C24.7762 16.7329 25.0338 16.7329 25.1922 16.5745L25.7674 16C25.9259 15.8416 25.9259 15.584 25.7674 15.4255C25.6882 15.3463 25.5842 15.3065 25.4802 15.3065ZM13.1277 17.8916C13.0238 17.8916 12.9199 17.9312 12.8404 18.0106C12.6816 18.1695 12.6816 18.4266 12.8404 18.5851L13.9894 19.734C14.0686 19.8132 14.1726 19.853 14.2766 19.853C14.3806 19.853 14.4846 19.8136 14.5638 19.734C14.7227 19.5752 14.7227 19.318 14.5638 19.1595L13.4149 18.0106C13.3355 17.9312 13.2316 17.8916 13.1277 17.8916Z" fill="white"/>
<g clip-path="url(#clip1_428_9)">
<path d="M3.83957 16.7313C10.5107 23.4501 6.9444 19.8545 16.0238 29C26.6546 18.2945 25.6731 19.2673 24.6927 20.238C23.9148 21.0083 23.1392 21.7796 28.1572 16.7258C28.5591 16.325 28.5591 15.675 28.1572 15.2731V15.2742C24.4944 11.5822 19.6443 6.6465 16.0238 3C7.70815 11.3742 3.83957 15.2742 3.83957 15.2742C3.44199 15.675 3.44199 16.325 3.83957 16.7313ZM16.0217 12.1563L19.8415 16L16.0227 19.8437L12.2029 16L16.0217 12.1563Z" fill="#2580F8"/>
<path d="M16 12.1791L12.2029 16L16 19.8209V12.1791Z" fill="#DEDEDE"/>
<path d="M16 3.0238C7.70061 11.3817 3.83961 15.2741 3.83961 15.2741C3.44311 15.675 3.44311 16.325 3.83961 16.7312C10.5054 23.4446 6.94986 19.861 16 28.9761V19.8209L12.2029 16L16 12.1791V3.0238Z" fill="#206FD8"/>
</g>
</g>
<defs>
<linearGradient id="paint0_linear_428_9" x1="0" y1="0" x2="0" y2="32" gradientUnits="userSpaceOnUse">
<stop stop-color="#BBBBBB" stop-opacity="0.1"/>
<stop offset="1" stop-opacity="0.1"/>
</linearGradient>
<clipPath id="clip0_428_9">
<rect width="26" height="26" fill="white" transform="translate(3 3)"/>
</clipPath>
<clipPath id="clip1_428_9">
<rect width="26" height="26" fill="white" transform="translate(3 3)"/>
</clipPath>
</defs>
</svg>
