<svg width="130" height="32" viewBox="0 0 130 32" fill="none" xmlns="http://www.w3.org/2000/svg">
<path d="M125 0H31V32H125C127.761 32 130 29.7614 130 27V5C130 2.23858 127.761 0 125 0Z" fill="#0F1418"/>
<path d="M31 0H5C2.23858 0 0 2.23858 0 5V27C0 29.7614 2.23858 32 5 32H31V0Z" fill="white"/>
<path d="M125 0H5C2.23858 0 0 2.23858 0 5V27C0 29.7614 2.23858 32 5 32H125C127.761 32 130 29.7614 130 27V5C130 2.23858 127.761 0 125 0Z" fill="url(#paint0_linear_426_2)"/>
<path d="M42.2729 22V11.0909H46.5769C47.4043 11.0909 48.1092 11.2489 48.6916 11.565C49.274 11.8775 49.7179 12.3125 50.0233 12.87C50.3322 13.424 50.4867 14.0632 50.4867 14.7876C50.4867 15.5121 50.3304 16.1513 50.0179 16.7053C49.7054 17.2592 49.2527 17.6907 48.6596 17.9996C48.0701 18.3086 47.3564 18.4631 46.5183 18.4631H43.775V16.6147H46.1454C46.5893 16.6147 46.9551 16.5384 47.2427 16.3857C47.5339 16.2294 47.7505 16.0146 47.8926 15.7411C48.0382 15.4641 48.111 15.1463 48.111 14.7876C48.111 14.4254 48.0382 14.1094 47.8926 13.8395C47.7505 13.5661 47.5339 13.3548 47.2427 13.2056C46.9515 13.0529 46.5822 12.9766 46.1348 12.9766H44.5794V22H42.2729ZM62.1897 16.5455C62.1897 17.7351 61.9642 18.7472 61.5132 19.5817C61.0657 20.4162 60.4549 21.0536 59.6808 21.494C58.9102 21.9308 58.0437 22.1491 57.0814 22.1491C56.1119 22.1491 55.2419 21.929 54.4713 21.4886C53.7007 21.0483 53.0917 20.4109 52.6442 19.5763C52.1968 18.7418 51.9731 17.7315 51.9731 16.5455C51.9731 15.3558 52.1968 14.3438 52.6442 13.5092C53.0917 12.6747 53.7007 12.0391 54.4713 11.6023C55.2419 11.1619 56.1119 10.9418 57.0814 10.9418C58.0437 10.9418 58.9102 11.1619 59.6808 11.6023C60.4549 12.0391 61.0657 12.6747 61.5132 13.5092C61.9642 14.3438 62.1897 15.3558 62.1897 16.5455ZM59.8512 16.5455C59.8512 15.7749 59.7358 15.125 59.505 14.5959C59.2777 14.0668 58.9564 13.6655 58.5409 13.392C58.1254 13.1186 57.6389 12.9819 57.0814 12.9819C56.5238 12.9819 56.0373 13.1186 55.6218 13.392C55.2064 13.6655 54.8832 14.0668 54.6524 14.5959C54.4251 15.125 54.3115 15.7749 54.3115 16.5455C54.3115 17.3161 54.4251 17.9659 54.6524 18.495C54.8832 19.0241 55.2064 19.4254 55.6218 19.6989C56.0373 19.9723 56.5238 20.109 57.0814 20.109C57.6389 20.109 58.1254 19.9723 58.5409 19.6989C58.9564 19.4254 59.2777 19.0241 59.505 18.495C59.7358 17.9659 59.8512 17.3161 59.8512 16.5455ZM69.9962 14.2283C69.9536 13.7987 69.7707 13.4648 69.4475 13.2269C69.1244 12.989 68.6858 12.87 68.1318 12.87C67.7554 12.87 67.4376 12.9233 67.1784 13.0298C66.9191 13.1328 66.7203 13.2766 66.5818 13.4613C66.4468 13.646 66.3793 13.8555 66.3793 14.0898C66.3722 14.2852 66.4131 14.4556 66.5019 14.6012C66.5942 14.7468 66.7203 14.8729 66.8801 14.9794C67.0399 15.0824 67.2245 15.1729 67.434 15.2511C67.6436 15.3256 67.8673 15.3896 68.1052 15.4428L69.0853 15.6772C69.5612 15.7837 69.998 15.9258 70.3957 16.1033C70.7934 16.2809 71.1379 16.4993 71.4291 16.7585C71.7203 17.0178 71.9458 17.3232 72.1056 17.6747C72.2689 18.0263 72.3524 18.4293 72.3559 18.8839C72.3524 19.5515 72.1819 20.1303 71.8445 20.6204C71.5107 21.1069 71.0278 21.4851 70.3957 21.755C69.7671 22.0213 69.009 22.1545 68.1212 22.1545C67.2405 22.1545 66.4735 22.0195 65.82 21.7496C65.1702 21.4798 64.6624 21.0803 64.2966 20.5511C63.9344 20.0185 63.7444 19.3597 63.7266 18.5749H65.9585C65.9834 18.9407 66.0882 19.2461 66.2728 19.4911C66.461 19.7326 66.7114 19.9155 67.0239 20.0398C67.3399 20.1605 67.6968 20.2209 68.0945 20.2209C68.4852 20.2209 68.8243 20.1641 69.1119 20.0504C69.4031 19.9368 69.6286 19.7788 69.7884 19.5763C69.9482 19.3739 70.0281 19.1413 70.0281 18.8786C70.0281 18.6335 69.9553 18.4276 69.8097 18.2607C69.6677 18.0937 69.4582 17.9517 69.1812 17.8345C68.9078 17.7173 68.5722 17.6108 68.1744 17.5149L66.9866 17.2166C66.0668 16.9929 65.3406 16.6431 64.808 16.1673C64.2753 15.6914 64.0107 15.0504 64.0143 14.2443C64.0107 13.5838 64.1865 13.0067 64.5416 12.5131C64.9003 12.0195 65.3921 11.6342 66.0171 11.3572C66.6421 11.0803 67.3524 10.9418 68.1478 10.9418C68.9575 10.9418 69.6641 11.0803 70.2678 11.3572C70.8751 11.6342 71.3474 12.0195 71.6847 12.5131C72.0221 13.0067 72.1961 13.5785 72.2068 14.2283H69.9962ZM73.6718 12.9925V11.0909H82.6313V12.9925H79.2915V22H77.0117V12.9925H73.6718ZM84.2868 11.0909H87.1313L90.1356 18.4205H90.2634L93.2677 11.0909H96.1121V22H93.8749V14.8995H93.7844L90.9612 21.9467H89.4378L86.6146 14.8729H86.5241V22H84.2868V11.0909ZM100.073 22H97.6012L101.367 11.0909H104.339L108.1 22H105.629L102.896 13.5838H102.811L100.073 22ZM99.9183 17.712H105.756V19.5124H99.9183V17.712ZM118.718 11.0909V22H116.726L111.979 15.1339H111.9V22H109.593V11.0909H111.617L116.326 17.9517H116.422V11.0909H118.718Z" fill="white"/>
<g clip-path="url(#clip0_426_2)">
<path d="M23.9975 9.05715C23.9692 9.07787 23.9481 9.10684 23.937 9.14006C23.926 9.17329 23.9255 9.20913 23.9356 9.24265V9.24148C23.9776 9.32557 23.994 9.42012 23.9828 9.51343C23.9716 9.60674 23.9333 9.69472 23.8726 9.76648L23.8738 9.76532C23.851 9.7942 23.8386 9.82999 23.8388 9.86682C23.8388 9.91815 23.8633 9.96482 23.9006 9.99515C23.9287 10.017 23.9631 10.0292 23.9986 10.0302C24.0476 10.0302 24.092 10.0068 24.1223 9.97182C24.2227 9.85126 24.2857 9.704 24.3035 9.54814C24.3213 9.39227 24.2932 9.23459 24.2226 9.09448C24.2103 9.07721 24.1947 9.06253 24.1768 9.0513C24.1588 9.04006 24.1387 9.03249 24.1178 9.02902C24.0969 9.02555 24.0755 9.02625 24.0548 9.03108C24.0342 9.03591 24.0147 9.04477 23.9975 9.05715ZM24.2238 9.09565L24.2215 9.09098L24.2226 9.09448L24.2238 9.09565Z" fill="#F36933"/>
<path d="M17.7815 2.11553C10.1142 1.13203 3.09898 6.55002 2.11549 14.2185C1.13199 21.8859 6.54882 28.8999 14.2173 29.8845C21.8858 30.868 28.9033 25.45 29.8845 17.7815C30.8691 10.1142 25.4523 3.10019 17.7815 2.11553ZM20.6643 10.848C20.4044 10.8509 20.156 10.9557 19.9725 11.1397L14.7773 16.3349L13.669 15.2265C18.7895 10.1212 19.7135 10.0722 20.6643 10.848V10.848ZM14.9908 16.5192L20.1708 11.3392C20.2386 11.2678 20.3203 11.2111 20.4107 11.1724C20.5012 11.1337 20.5987 11.1138 20.6971 11.1141C20.7955 11.1143 20.8929 11.1347 20.9832 11.1739C21.0735 11.213 21.1548 11.2702 21.2222 11.342C21.2896 11.4137 21.3417 11.4984 21.3752 11.5909C21.4088 11.6835 21.4231 11.7819 21.4173 11.8801C21.4115 11.9784 21.3857 12.0744 21.3415 12.1623C21.2972 12.2503 21.2356 12.3283 21.1602 12.3915L21.159 12.3927L15.6768 17.2052L14.9908 16.5192V16.5192ZM15.3758 17.3289L14.0925 17.6065C14.0875 17.6075 14.0824 17.6079 14.0773 17.6077C14.0643 17.6078 14.0515 17.6042 14.0403 17.5974C14.0292 17.5906 14.0202 17.5808 14.0143 17.5692C14.0065 17.5557 14.0034 17.54 14.0055 17.5246C14.0077 17.5092 14.0148 17.4949 14.026 17.484L14.7785 16.7315L15.3758 17.3289ZM12.1057 16.7934L13.473 15.426L14.4985 16.4504L12.1897 16.9474C12.1823 16.9488 12.1749 16.9496 12.1675 16.9497C12.1515 16.9496 12.1358 16.9451 12.1222 16.9367C12.1086 16.9282 12.0976 16.9162 12.0905 16.9019C12.0819 16.8883 12.0774 16.8724 12.0777 16.8564C12.0777 16.8319 12.0882 16.8085 12.1057 16.7934V16.7934ZM7.85198 23.8599C7.82991 23.8584 7.80925 23.8485 7.79427 23.8322C7.77929 23.8159 7.77114 23.7945 7.77148 23.7724V23.763C7.7737 23.7427 7.78275 23.7238 7.79715 23.7094H7.79949L8.90315 22.6057L10.3288 24.0314L7.85198 23.8599V23.8599ZM10.6823 22.3957C10.6288 22.423 10.5862 22.4676 10.5614 22.5223C10.5365 22.577 10.5311 22.6385 10.5458 22.6967V22.6944L10.7827 23.7035C10.7903 23.7346 10.7875 23.7674 10.7747 23.7967C10.7619 23.8261 10.7398 23.8504 10.7118 23.8659C10.6838 23.8814 10.6514 23.8873 10.6197 23.8826C10.5881 23.878 10.5588 23.863 10.5365 23.84H10.533L9.10032 22.4062L13.4893 18.0219L15.6127 17.5634L16.6323 18.583C15.1682 19.8687 13.1662 21.1509 10.6823 22.3957V22.3957ZM16.84 18.3964H16.8377L15.8588 17.4175L21.341 12.605C21.3906 12.5605 21.4363 12.5117 21.4775 12.4592L21.4798 12.4569C21.3083 14.026 19.1127 16.2427 16.84 18.3964V18.3964ZM22.6057 11.4804C22.3272 11.4809 22.0514 11.4263 21.7941 11.3198C21.5368 11.2132 21.3031 11.0569 21.1065 10.8597H21.1077L21.1042 10.8574C20.7219 10.4688 20.5036 9.94833 20.4942 9.40339C20.4847 8.85845 20.685 8.33072 21.0536 7.92921C21.4221 7.52771 21.9308 7.28311 22.4746 7.24594C23.0183 7.20878 23.5556 7.3819 23.9753 7.72953L23.9718 7.72719L22.0935 9.60903C22.0805 9.6218 22.0702 9.63706 22.0631 9.65389C22.0561 9.67072 22.0526 9.68879 22.0527 9.70703C22.0527 9.74553 22.0678 9.78053 22.0935 9.80503L23.5483 11.2599C23.2555 11.4057 22.9328 11.4812 22.6057 11.4804ZM24.1153 10.8597C24.0208 10.953 23.9182 11.0359 23.8062 11.1094L23.7992 11.114H23.798L22.3898 9.70586L24.1783 7.91736C24.9495 8.75736 24.9215 10.0547 24.1153 10.8597Z" fill="#F36933"/>
</g>
<defs>
<linearGradient id="paint0_linear_426_2" x1="0" y1="0" x2="0" y2="32" gradientUnits="userSpaceOnUse">
<stop stop-color="#BBBBBB" stop-opacity="0.1"/>
<stop offset="1" stop-opacity="0.1"/>
</linearGradient>
<clipPath id="clip0_426_2">
<rect width="28" height="28" fill="white" transform="translate(2 2)"/>
</clipPath>
</defs>
</svg>
