<svg width="92" height="32" viewBox="0 0 92 32" fill="none" xmlns="http://www.w3.org/2000/svg">
<path d="M87 0H31V32H87C89.7614 32 92 29.7614 92 27V5C92 2.23858 89.7614 0 87 0Z" fill="#0F1418"/>
<path d="M31 0H5C2.23858 0 0 2.23858 0 5V27C0 29.7614 2.23858 32 5 32H31V0Z" fill="#51BDFF"/>
<path d="M87 0H5C2.23858 0 0 2.23858 0 5V27C0 29.7614 2.23857 32 5 32H87C89.7614 32 92 29.7614 92 27V5C92 2.23858 89.7614 0 87 0Z" fill="url(#paint0_linear_444_98)"/>
<path d="M24.7969 15.5938V11.6509C25.1287 11.5668 25.4324 11.3963 25.6769 11.1567C25.9214 10.9172 26.0981 10.6171 26.189 10.287C26.2798 9.95693 26.2816 9.60869 26.1941 9.27771C26.1067 8.94674 25.933 8.64485 25.691 8.40278C25.4489 8.16071 25.147 7.9871 24.816 7.89962C24.4851 7.81214 24.1368 7.81392 23.8068 7.90478C23.4767 7.99563 23.1766 8.17232 22.937 8.41685C22.6974 8.66138 22.5269 8.96502 22.4428 9.29688H16.5625V6.51656C16.5625 4.54516 13.5836 3 9.78125 3C5.97891 3 3 4.54516 3 6.51656V18.6259C3 20.515 5.73187 22.0166 9.29688 22.128V24.3609C8.96637 24.4457 8.66412 24.6162 8.42067 24.8553C8.17723 25.0943 8.00123 25.3935 7.91047 25.7224C7.81972 26.0513 7.81743 26.3983 7.90384 26.7284C7.99025 27.0584 8.16229 27.3598 8.40256 27.6021C8.64283 27.8443 8.94281 28.0189 9.27216 28.108C9.60152 28.1971 9.94856 28.1976 10.2782 28.1096C10.6078 28.0215 10.9084 27.848 11.1494 27.6065C11.3905 27.365 11.5635 27.0642 11.6509 26.7344H19.4688C19.6141 28.1245 21.6388 29.1562 24.3125 29.1562C27.0734 29.1562 29.1562 28.047 29.1562 26.5745V18.1755C29.1562 16.7902 27.3156 15.7294 24.7969 15.5938ZM28.1875 23.7603C28.1926 23.8038 28.1926 23.8476 28.1875 23.8911V23.9492C28.1792 23.974 28.1694 23.9982 28.1584 24.0219L28.1197 24.0945L28.0809 24.1527L28.0228 24.2302L27.9695 24.2883L27.9017 24.3609L27.8194 24.4336L27.7564 24.4869C27.3952 24.7459 26.9922 24.9409 26.5648 25.0633H26.5406L26.2548 25.1456H26.2016L25.9206 25.2086H25.8237L25.5622 25.2522H25.3975L25.1795 25.2764H23.5327L23.3147 25.2522H23.15L22.8594 25.257H22.7625L22.4767 25.1941H22.4234L22.1328 25.1117C21.6964 24.981 21.2865 24.7744 20.9219 24.5014L20.8589 24.4481L20.7766 24.3755L20.6942 24.3125L20.6458 24.2544L20.5877 24.1769L20.5489 24.1187L20.5102 24.0461C20.4992 24.0224 20.4895 23.9982 20.4811 23.9734C20.4811 23.9734 20.4811 23.9347 20.4811 23.9153C20.476 23.8719 20.476 23.828 20.4811 23.7845V22.5591C21.6454 23.2681 22.9941 23.6153 24.3561 23.5569C25.7181 23.6153 27.0667 23.2681 28.2311 22.5591L28.1875 23.7603ZM28.1875 19.7448V20.9606C28.1926 21.0041 28.1926 21.048 28.1875 21.0914V21.1495C28.1792 21.1743 28.1695 21.1985 28.1584 21.2222L28.1197 21.2948L28.0809 21.353L28.0228 21.4305L27.9695 21.4886L27.9017 21.5612L27.8194 21.6339L27.7564 21.6872C27.3952 21.9462 26.9922 22.1412 26.5648 22.2636H26.5406L26.2548 22.3459H26.2016L25.9206 22.4089H25.8237L25.5622 22.4525H25.3975L25.1795 22.4767H23.5327L23.3147 22.4525H23.15L22.8594 22.4573H22.7625L22.4622 22.375H22.4089L22.1183 22.2927C21.6883 22.1663 21.2835 21.9664 20.9219 21.7017L20.8589 21.6484L20.7766 21.5758L20.7039 21.5031L20.6555 21.445L20.5973 21.3675L20.5586 21.3094L20.5198 21.2367C20.5088 21.2131 20.4991 21.1888 20.4908 21.1641C20.4908 21.1641 20.4908 21.1253 20.4908 21.1059C20.4857 21.0625 20.4857 21.0186 20.4908 20.9752V19.7594H20.5295C20.6449 19.84 20.7646 19.9144 20.888 19.9822C21.9532 20.5051 23.1259 20.7721 24.3125 20.762C25.5151 20.788 26.7069 20.5291 27.7903 20.0064C27.9137 19.9387 28.0334 19.8643 28.1487 19.7836L28.1875 19.7448ZM28.1875 18.1609C28.1875 18.4855 27.8775 18.8391 27.335 19.1297C26.3938 19.5858 25.3582 19.8132 24.3125 19.7933C23.2687 19.8207 22.2332 19.6017 21.29 19.1539C20.7475 18.8633 20.4375 18.5048 20.4375 18.1852C20.4375 17.415 22.0941 16.5625 24.3125 16.5625C26.5309 16.5625 28.1875 17.415 28.1875 18.1755V18.1609ZM24.3125 8.8125C24.5041 8.8125 24.6914 8.86932 24.8507 8.97576C25.01 9.08221 25.1342 9.23351 25.2075 9.41053C25.2808 9.58754 25.3 9.78232 25.2626 9.97024C25.2253 10.1582 25.133 10.3308 24.9975 10.4663C24.862 10.6017 24.6894 10.694 24.5015 10.7314C24.3136 10.7688 24.1188 10.7496 23.9418 10.6763C23.7648 10.6029 23.6135 10.4788 23.507 10.3195C23.4006 10.1601 23.3438 9.97285 23.3438 9.78125C23.3438 9.52432 23.4458 9.27792 23.6275 9.09624C23.8092 8.91456 24.0556 8.8125 24.3125 8.8125ZM22.4428 10.2656C22.5298 10.5988 22.704 10.9028 22.9475 11.1463C23.191 11.3898 23.4949 11.564 23.8281 11.6509V15.5938C21.3094 15.7148 19.4688 16.7805 19.4688 18.1658V25.7656H11.6509C11.564 25.4324 11.3898 25.1285 11.1463 24.885C10.9028 24.6415 10.5988 24.4673 10.2656 24.3803V22.1473C13.8306 22.0214 16.5625 20.5295 16.5625 18.6453V10.2656H22.4428ZM13.5497 16.5092L13.1622 16.6497L13.0314 16.6884L12.6972 16.7853L12.4163 16.8531L12.1886 16.9064L11.7042 16.9936H11.6316C10.4003 17.1811 9.1477 17.1811 7.91641 16.9936H7.84375L7.35938 16.9064L7.13172 16.8531L6.875 16.7853L6.54078 16.6884L6.39062 16.6448L5.99828 16.5044H5.96922C4.84547 16.0588 4.12859 15.4436 3.98328 14.8381C3.96871 14.7599 3.96383 14.6802 3.96875 14.6008V12.4066C4.02203 12.4502 4.085 12.4938 4.14313 12.5373C4.36642 12.7185 4.60461 12.8806 4.85516 13.0217C5.20492 13.212 5.56937 13.374 5.945 13.5061L6.36156 13.6369L6.48266 13.6756C7.55737 13.9691 8.6672 14.1142 9.78125 14.1067C10.8962 14.1079 12.006 13.9563 13.0798 13.6562L13.1719 13.6078L13.5981 13.4722C13.9738 13.3401 14.3382 13.1781 14.688 12.9878C15.01 12.8273 15.3137 12.6324 15.5938 12.4066V14.6008C15.5931 14.6776 15.5834 14.754 15.5647 14.8284C15.4194 15.4339 14.7025 16.0491 13.5788 16.4947L13.5497 16.5092ZM4.27875 8.59937L4.40469 8.69141C4.54516 8.78828 4.69531 8.87547 4.85516 8.96266C6.38977 9.70301 8.07777 10.0698 9.78125 10.0331C11.4847 10.0698 13.1727 9.70301 14.7073 8.96266C14.8672 8.87547 15.0173 8.78344 15.1578 8.69141L15.2886 8.59937C15.3806 8.53156 15.4678 8.46859 15.5502 8.40078L15.5938 8.36687V10.5563C15.5931 10.633 15.5834 10.7094 15.5647 10.7839C15.4194 11.3894 14.7025 12.0045 13.5788 12.4502H13.5497L13.1622 12.5906L13.0314 12.6294L12.6972 12.7262L12.4163 12.7941L12.1886 12.8473L11.7042 12.9345H11.6316C10.4003 13.122 9.1477 13.122 7.91641 12.9345H7.84375L7.35938 12.8473L7.13172 12.7941L6.875 12.7408L6.54078 12.6439L6.39062 12.6052L5.99828 12.4647H5.96922C4.84547 12.0191 4.12859 11.4039 3.98328 10.7984C3.96831 10.7186 3.96343 10.6373 3.96875 10.5563V8.36203L4.01234 8.39594C4.09469 8.46375 4.18672 8.53156 4.27875 8.59937V8.59937ZM9.78125 3.96875C13.2058 3.96875 15.5938 5.31047 15.5938 6.51656C15.5938 7.07844 15.1094 7.64516 14.2472 8.11016C12.8555 8.77984 11.3254 9.11174 9.78125 9.07891C8.23713 9.11174 6.70704 8.77984 5.31531 8.11016C4.45312 7.64031 3.96875 7.07359 3.96875 6.51656C3.96875 5.31047 6.35672 3.96875 9.78125 3.96875ZM3.96875 18.6453V16.4462C4.02203 16.4898 4.085 16.5334 4.14313 16.577C4.36642 16.7582 4.60461 16.9203 4.85516 17.0614C5.20492 17.2517 5.56937 17.4137 5.945 17.5458L6.36156 17.6766L6.48266 17.7153C7.55737 18.0088 8.6672 18.1539 9.78125 18.1464C10.8953 18.1539 12.0051 18.0088 13.0798 17.7153L13.1913 17.6814L13.6175 17.5458C13.9931 17.4137 14.3576 17.2517 14.7073 17.0614C15.0242 16.889 15.3214 16.6828 15.5938 16.4462V18.6453C15.5938 19.8514 13.2058 21.1931 9.78125 21.1931C6.35672 21.1931 3.96875 19.8466 3.96875 18.6453ZM9.78125 27.2188C9.58965 27.2188 9.40235 27.1619 9.24304 27.0555C9.08373 26.949 8.95956 26.7977 8.88624 26.6207C8.81292 26.4437 8.79373 26.2489 8.83111 26.061C8.86849 25.8731 8.96076 25.7005 9.09624 25.565C9.23172 25.4295 9.40434 25.3372 9.59226 25.2999C9.78018 25.2625 9.97496 25.2817 10.152 25.355C10.329 25.4283 10.4803 25.5525 10.5867 25.7118C10.6932 25.8711 10.75 26.0584 10.75 26.25C10.75 26.5069 10.6479 26.7533 10.4663 26.935C10.2846 27.1167 10.0382 27.2188 9.78125 27.2188ZM24.3125 28.1875C22.0941 28.1875 20.4375 27.335 20.4375 26.5745V25.3587C21.6019 26.0678 22.9505 26.415 24.3125 26.3566C25.6745 26.415 27.0231 26.0678 28.1875 25.3587V26.5745C28.1875 27.335 26.5309 28.1875 24.3125 28.1875Z" fill="black"/>
<path d="M51.6495 14.2283C51.6069 13.7987 51.424 13.4648 51.1009 13.2269C50.7777 12.989 50.3391 12.87 49.7852 12.87C49.4087 12.87 49.0909 12.9233 48.8317 13.0298C48.5724 13.1328 48.3736 13.2766 48.2351 13.4613C48.1001 13.646 48.0327 13.8555 48.0327 14.0898C48.0256 14.2852 48.0664 14.4556 48.1552 14.6012C48.2475 14.7468 48.3736 14.8729 48.5334 14.9794C48.6932 15.0824 48.8778 15.1729 49.0874 15.2511C49.2969 15.3256 49.5206 15.3896 49.7585 15.4428L50.7386 15.6772C51.2145 15.7837 51.6513 15.9258 52.049 16.1033C52.4467 16.2809 52.7912 16.4993 53.0824 16.7585C53.3736 17.0178 53.5991 17.3232 53.7589 17.6747C53.9222 18.0263 54.0057 18.4293 54.0092 18.8839C54.0057 19.5515 53.8352 20.1303 53.4979 20.6204C53.1641 21.1069 52.6811 21.4851 52.049 21.755C51.4205 22.0213 50.6623 22.1545 49.7745 22.1545C48.8938 22.1545 48.1268 22.0195 47.4734 21.7496C46.8235 21.4798 46.3157 21.0803 45.9499 20.5511C45.5877 20.0185 45.3977 19.3597 45.38 18.5749H47.6119C47.6367 18.9407 47.7415 19.2461 47.9261 19.4911C48.1143 19.7326 48.3647 19.9155 48.6772 20.0398C48.9933 20.1605 49.3501 20.2209 49.7479 20.2209C50.1385 20.2209 50.4776 20.1641 50.7653 20.0504C51.0565 19.9368 51.282 19.7788 51.4418 19.5763C51.6016 19.3739 51.6815 19.1413 51.6815 18.8786C51.6815 18.6335 51.6087 18.4276 51.4631 18.2607C51.321 18.0937 51.1115 17.9517 50.8345 17.8345C50.5611 17.7173 50.2255 17.6108 49.8278 17.5149L48.6399 17.2166C47.7202 16.9929 46.994 16.6431 46.4613 16.1673C45.9286 15.6914 45.6641 15.0504 45.6676 14.2443C45.6641 13.5838 45.8398 13.0067 46.195 12.5131C46.5536 12.0195 47.0455 11.6342 47.6705 11.3572C48.2955 11.0803 49.0057 10.9418 49.8011 10.9418C50.6108 10.9418 51.3175 11.0803 51.9212 11.3572C52.5284 11.6342 53.0007 12.0195 53.3381 12.5131C53.6754 13.0067 53.8494 13.5785 53.8601 14.2283H51.6495ZM59.8582 18.2074H61.8184L62.8038 19.4751L63.7733 20.6044L65.6004 22.8949H63.4484L62.1913 21.3501L61.5467 20.4339L59.8582 18.2074ZM65.7655 16.5455C65.7655 17.7351 65.54 18.7472 65.089 19.5817C64.6416 20.4162 64.0308 21.0536 63.2566 21.494C62.486 21.9308 61.6195 22.1491 60.6572 22.1491C59.6877 22.1491 58.8177 21.929 58.0471 21.4886C57.2765 21.0483 56.6675 20.4109 56.22 19.5763C55.7726 18.7418 55.5489 17.7315 55.5489 16.5455C55.5489 15.3558 55.7726 14.3438 56.22 13.5092C56.6675 12.6747 57.2765 12.0391 58.0471 11.6023C58.8177 11.1619 59.6877 10.9418 60.6572 10.9418C61.6195 10.9418 62.486 11.1619 63.2566 11.6023C64.0308 12.0391 64.6416 12.6747 65.089 13.5092C65.54 14.3438 65.7655 15.3558 65.7655 16.5455ZM63.4271 16.5455C63.4271 15.7749 63.3117 15.125 63.0808 14.5959C62.8536 14.0668 62.5322 13.6655 62.1167 13.392C61.7012 13.1186 61.2147 12.9819 60.6572 12.9819C60.0997 12.9819 59.6131 13.1186 59.1977 13.392C58.7822 13.6655 58.459 14.0668 58.2282 14.5959C58.0009 15.125 57.8873 15.7749 57.8873 16.5455C57.8873 17.3161 58.0009 17.9659 58.2282 18.495C58.459 19.0241 58.7822 19.4254 59.1977 19.6989C59.6131 19.9723 60.0997 20.109 60.6572 20.109C61.2147 20.109 61.7012 19.9723 62.1167 19.6989C62.5322 19.4254 62.8536 19.0241 63.0808 18.495C63.3117 17.9659 63.4271 17.3161 63.4271 16.5455ZM67.654 22V11.0909H69.9605V20.0984H74.6373V22H67.654Z" fill="white"/>
<defs>
<linearGradient id="paint0_linear_444_98" x1="0" y1="0" x2="0" y2="32" gradientUnits="userSpaceOnUse">
<stop stop-color="#BBBBBB" stop-opacity="0.1"/>
<stop offset="1" stop-opacity="0.1"/>
</linearGradient>
</defs>
</svg>
