<svg width="130" height="32" viewBox="0 0 130 32" fill="none" xmlns="http://www.w3.org/2000/svg">
<path d="M125 0H31V32H125C127.761 32 130 29.7614 130 27V5C130 2.23858 127.761 0 125 0Z" fill="#0F1418"/>
<path d="M31 0H5C2.23858 0 0 2.23858 0 5V27C0 29.7614 2.23858 32 5 32H31V0Z" fill="#1976D2"/>
<path d="M50.6714 13.4233H47.6758V22H45.3028V13.4233H42.3218V11.4971H50.6714V13.4233ZM58.7689 14.5L55.722 22.6006C54.9896 24.5488 53.8861 25.5229 52.4115 25.5229C51.85 25.5229 51.3886 25.4595 51.0272 25.3325V23.4868C51.3348 23.6675 51.6693 23.7578 52.0306 23.7578C52.6263 23.7578 53.0414 23.4771 53.2758 22.9155L53.6713 21.9854L50.6244 14.5H53.1879L54.5868 19.063C54.6747 19.3462 54.743 19.6807 54.7919 20.0664H54.8212C54.8651 19.7832 54.9457 19.4536 55.0629 19.0776L56.4764 14.5H58.7689ZM62.2229 21.1284H62.1936V25.4497H59.8791V14.5H62.1936V15.6279H62.2229C62.7941 14.7539 63.5974 14.3169 64.6325 14.3169C65.6042 14.3169 66.3537 14.6514 66.8811 15.3203C67.4133 15.9844 67.6794 16.8901 67.6794 18.0376C67.6794 19.2876 67.3693 20.291 66.7492 21.0479C66.134 21.8047 65.3137 22.1831 64.2883 22.1831C63.385 22.1831 62.6965 21.8315 62.2229 21.1284ZM62.1569 18.0522V18.6528C62.1569 19.1704 62.2937 19.5928 62.5671 19.9199C62.8405 20.2471 63.1994 20.4106 63.6437 20.4106C64.1711 20.4106 64.5788 20.208 64.8669 19.8027C65.1599 19.3926 65.3063 18.814 65.3063 18.0669C65.3063 16.7485 64.7937 16.0894 63.7683 16.0894C63.2946 16.0894 62.9064 16.27 62.6037 16.6313C62.3059 16.9878 62.1569 17.4614 62.1569 18.0522ZM76.0991 18.9092H71.2066C71.2847 19.998 71.9707 20.5425 73.2647 20.5425C74.0899 20.5425 74.815 20.3472 75.44 19.9565V21.6265C74.7466 21.9976 73.8457 22.1831 72.7373 22.1831C71.5264 22.1831 70.5864 21.8486 69.9175 21.1797C69.2486 20.5059 68.9141 19.5684 68.9141 18.3672C68.9141 17.1221 69.2754 16.1357 69.9981 15.4082C70.7207 14.6807 71.6094 14.3169 72.6641 14.3169C73.7578 14.3169 74.6026 14.6416 75.1983 15.291C75.7988 15.9404 76.0991 16.8218 76.0991 17.9351V18.9092ZM73.9531 17.4883C73.9531 16.4141 73.5186 15.877 72.6494 15.877C72.2783 15.877 71.9561 16.0308 71.6826 16.3384C71.4141 16.646 71.2505 17.0293 71.1919 17.4883H73.9531ZM77.6634 21.5972V19.2534C78.0882 19.6099 78.5496 19.8784 79.0477 20.0591C79.5457 20.2349 80.0487 20.3228 80.5565 20.3228C80.8543 20.3228 81.1131 20.2959 81.3329 20.2422C81.5575 20.1885 81.743 20.1152 81.8895 20.0225C82.0409 19.9248 82.1532 19.8125 82.2264 19.6855C82.2996 19.5537 82.3363 19.4121 82.3363 19.2607C82.3363 19.0557 82.2777 18.8726 82.1605 18.7114C82.0433 18.5503 81.8822 18.4014 81.6771 18.2646C81.4769 18.1279 81.2376 17.9961 80.9593 17.8691C80.681 17.7422 80.3807 17.6128 80.0584 17.481C79.2381 17.1392 78.6253 16.7217 78.2201 16.2285C77.8197 15.7354 77.6195 15.1396 77.6195 14.4414C77.6195 13.8945 77.7293 13.4258 77.9491 13.0352C78.1688 12.6396 78.4666 12.3149 78.8426 12.061C79.2235 11.8071 79.6629 11.6216 80.161 11.5044C80.659 11.3823 81.1864 11.3213 81.743 11.3213C82.2899 11.3213 82.7733 11.3555 83.1932 11.4238C83.618 11.4873 84.0086 11.5874 84.3651 11.7241V13.9141C84.1893 13.792 83.9964 13.6846 83.7865 13.5918C83.5814 13.499 83.369 13.4233 83.1493 13.3647C82.9295 13.3013 82.7098 13.2549 82.4901 13.2256C82.2752 13.1963 82.0702 13.1816 81.8748 13.1816C81.6063 13.1816 81.3621 13.2085 81.1424 13.2622C80.9227 13.311 80.7371 13.3818 80.5858 13.4746C80.4344 13.5674 80.3172 13.6797 80.2342 13.8115C80.1512 13.9385 80.1097 14.0825 80.1097 14.2437C80.1097 14.4194 80.1561 14.5781 80.2489 14.7197C80.3416 14.8564 80.4735 14.9883 80.6444 15.1152C80.8153 15.2373 81.0228 15.3594 81.2669 15.4814C81.5111 15.5986 81.787 15.7207 82.0946 15.8477C82.5145 16.0234 82.8905 16.2114 83.2225 16.4116C83.5594 16.6069 83.8475 16.8291 84.0868 17.0781C84.326 17.3271 84.5091 17.6128 84.6361 17.9351C84.763 18.2524 84.8265 18.6235 84.8265 19.0483C84.8265 19.6343 84.7142 20.1274 84.4896 20.5278C84.2699 20.9233 83.9696 21.2456 83.5887 21.4946C83.2079 21.7388 82.7635 21.9146 82.2557 22.022C81.7528 22.1294 81.2205 22.1831 80.659 22.1831C80.0829 22.1831 79.5335 22.1343 79.0111 22.0366C78.4935 21.939 78.0443 21.7925 77.6634 21.5972ZM92.4552 21.729C91.9328 22.0317 91.1784 22.1831 90.1921 22.1831C89.0397 22.1831 88.1071 21.834 87.3942 21.1357C86.6813 20.4375 86.3249 19.5366 86.3249 18.4331C86.3249 17.1587 86.7057 16.1553 87.4674 15.4229C88.234 14.6855 89.257 14.3169 90.5363 14.3169C91.4201 14.3169 92.0597 14.4341 92.4552 14.6685V16.6313C91.9718 16.27 91.4323 16.0894 90.8366 16.0894C90.1725 16.0894 89.6452 16.2847 89.2546 16.6753C88.8688 17.061 88.6759 17.5957 88.6759 18.2793C88.6759 18.9434 88.8615 19.4658 89.2326 19.8467C89.6037 20.2227 90.1139 20.4106 90.7633 20.4106C91.3395 20.4106 91.9035 20.23 92.4552 19.8687V21.729ZM99.0513 16.5874C98.7729 16.436 98.4482 16.3604 98.0771 16.3604C97.5742 16.3604 97.1811 16.5459 96.8979 16.917C96.6147 17.2832 96.4731 17.7837 96.4731 18.4185V22H94.1587V14.5H96.4731V15.8916H96.5024C96.8686 14.876 97.5278 14.3682 98.48 14.3682C98.7241 14.3682 98.9145 14.3975 99.0513 14.4561V16.5874ZM101.546 13.3135C101.155 13.3135 100.835 13.1987 100.586 12.9692C100.337 12.7349 100.213 12.4492 100.213 12.1123C100.213 11.7656 100.337 11.4824 100.586 11.2627C100.835 11.043 101.155 10.9331 101.546 10.9331C101.941 10.9331 102.261 11.043 102.505 11.2627C102.754 11.4824 102.879 11.7656 102.879 12.1123C102.879 12.4639 102.754 12.752 102.505 12.9766C102.261 13.2012 101.941 13.3135 101.546 13.3135ZM102.688 22H100.374V14.5H102.688V22ZM107.16 21.1284H107.131V25.4497H104.817V14.5H107.131V15.6279H107.16C107.732 14.7539 108.535 14.3169 109.57 14.3169C110.542 14.3169 111.291 14.6514 111.818 15.3203C112.351 15.9844 112.617 16.8901 112.617 18.0376C112.617 19.2876 112.307 20.291 111.687 21.0479C111.071 21.8047 110.251 22.1831 109.226 22.1831C108.322 22.1831 107.634 21.8315 107.16 21.1284ZM107.094 18.0522V18.6528C107.094 19.1704 107.231 19.5928 107.505 19.9199C107.778 20.2471 108.137 20.4106 108.581 20.4106C109.109 20.4106 109.516 20.208 109.804 19.8027C110.097 19.3926 110.244 18.814 110.244 18.0669C110.244 16.7485 109.731 16.0894 108.706 16.0894C108.232 16.0894 107.844 16.27 107.541 16.6313C107.243 16.9878 107.094 17.4614 107.094 18.0522ZM118.832 21.9121C118.49 22.0928 117.975 22.1831 117.287 22.1831C115.656 22.1831 114.84 21.3359 114.84 19.6416V16.2065H113.624V14.5H114.84V12.8813L117.147 12.2222V14.5H118.832V16.2065H117.147V19.2388C117.147 20.02 117.457 20.4106 118.078 20.4106C118.322 20.4106 118.573 20.3398 118.832 20.1982V21.9121Z" fill="white"/>
<path d="M125 0H5C2.23858 0 0 2.23858 0 5V27C0 29.7614 2.23858 32 5 32H125C127.761 32 130 29.7614 130 27V5C130 2.23858 127.761 0 125 0Z" fill="url(#paint0_linear_23_18)"/>
<path d="M19 15H7V17.72H11.304V30H14.7141V17.72H19V15Z" fill="white"/>
<path d="M28.3444 18.4049C28.3444 18.4049 26.9278 17.409 25.3264 17.409C23.7251 17.409 23.1488 18.2111 23.1488 19.0683C23.1488 21.2806 29 21.0592 29 25.5114C29 32.3697 20.0785 29.3278 20.0785 29.3278V26.0377C20.0785 26.0377 21.7845 27.3929 23.8305 27.3929C25.8766 27.3929 25.7989 25.9826 25.7989 25.7888C25.7989 23.7427 20 23.7427 20 19.207C20 13.0404 28.449 15.4732 28.449 15.4732L28.3444 18.4049Z" fill="white"/>
<defs>
<linearGradient id="paint0_linear_23_18" x1="0" y1="0" x2="0" y2="32" gradientUnits="userSpaceOnUse">
<stop stop-color="#BBBBBB" stop-opacity="0.1"/>
<stop offset="1" stop-opacity="0.1"/>
</linearGradient>
</defs>
</svg>
