<svg width="116" height="32" viewBox="0 0 116 32" fill="none" xmlns="http://www.w3.org/2000/svg">
<path d="M111 0H31V32H111C113.761 32 116 29.7614 116 27V5C116 2.23858 113.761 0 111 0Z" fill="#0F1418"/>
<path d="M31 0H5C2.23858 0 0 2.23858 0 5V27C0 29.7614 2.23858 32 5 32H31V0Z" fill="#0288D1"/>
<path d="M26.0627 8.9435V23.1588C26.0627 23.8591 25.6271 24.4821 24.971 24.7137L20.1075 26.9966L20.5487 21.0138V11.0885L20.1075 5.10571L24.971 7.38854C25.6271 7.62013 26.0627 8.24322 26.0627 8.9435Z" fill="white"/>
<path d="M6.76334 21.5078L20.5485 11.0884V5.76902C20.5485 5.10843 19.7313 4.79965 19.2941 5.29481L4.36913 18.9399C3.87287 19.3976 3.90099 20.19 4.42813 20.6118C4.42813 20.6118 5.1582 21.2911 5.42232 21.4797C5.82816 21.7692 6.36137 21.8023 6.76334 21.5078Z" fill="white"/>
<path d="M6.76334 10.5937L20.5485 21.0131V26.3325C20.5485 26.9931 19.7313 27.3019 19.2941 26.8067L4.36913 13.1616C3.87287 12.7039 3.90099 11.9116 4.42813 11.4897C4.42813 11.4897 5.1582 10.8104 5.42232 10.6218C5.82816 10.3323 6.36137 10.2992 6.76334 10.5937Z" fill="white"/>
<path d="M53.2066 11.4971L49.5884 22H46.9078L43.3335 11.4971H45.8824L48.0723 18.8066C48.1895 19.2021 48.2603 19.5513 48.2847 19.854H48.3287C48.3628 19.5269 48.4385 19.168 48.5557 18.7773L50.731 11.4971H53.2066ZM54.5438 21.5972V19.2534C54.9686 19.6099 55.43 19.8784 55.9281 20.0591C56.4261 20.2349 56.9291 20.3228 57.4369 20.3228C57.7347 20.3228 57.9935 20.2959 58.2132 20.2422C58.4379 20.1885 58.6234 20.1152 58.7699 20.0225C58.9212 19.9248 59.0336 19.8125 59.1068 19.6855C59.18 19.5537 59.2167 19.4121 59.2167 19.2607C59.2167 19.0557 59.1581 18.8726 59.0409 18.7114C58.9237 18.5503 58.7626 18.4014 58.5575 18.2646C58.3573 18.1279 58.118 17.9961 57.8397 17.8691C57.5614 17.7422 57.2611 17.6128 56.9388 17.481C56.1185 17.1392 55.5057 16.7217 55.1004 16.2285C54.7001 15.7354 54.4999 15.1396 54.4999 14.4414C54.4999 13.8945 54.6097 13.4258 54.8295 13.0352C55.0492 12.6396 55.347 12.3149 55.723 12.061C56.1039 11.8071 56.5433 11.6216 57.0414 11.5044C57.5394 11.3823 58.0668 11.3213 58.6234 11.3213C59.1703 11.3213 59.6537 11.3555 60.0736 11.4238C60.4984 11.4873 60.889 11.5874 61.2455 11.7241V13.9141C61.0697 13.792 60.8768 13.6846 60.6669 13.5918C60.4618 13.499 60.2494 13.4233 60.0296 13.3647C59.8099 13.3013 59.5902 13.2549 59.3705 13.2256C59.1556 13.1963 58.9505 13.1816 58.7552 13.1816C58.4867 13.1816 58.2425 13.2085 58.0228 13.2622C57.8031 13.311 57.6175 13.3818 57.4662 13.4746C57.3148 13.5674 57.1976 13.6797 57.1146 13.8115C57.0316 13.9385 56.9901 14.0825 56.9901 14.2437C56.9901 14.4194 57.0365 14.5781 57.1293 14.7197C57.222 14.8564 57.3539 14.9883 57.5248 15.1152C57.6957 15.2373 57.9032 15.3594 58.1473 15.4814C58.3915 15.5986 58.6673 15.7207 58.975 15.8477C59.3949 16.0234 59.7709 16.2114 60.1029 16.4116C60.4398 16.6069 60.7279 16.8291 60.9671 17.0781C61.2064 17.3271 61.3895 17.6128 61.5165 17.9351C61.6434 18.2524 61.7069 18.6235 61.7069 19.0483C61.7069 19.6343 61.5946 20.1274 61.37 20.5278C61.1503 20.9233 60.85 21.2456 60.4691 21.4946C60.0882 21.7388 59.6439 21.9146 59.1361 22.022C58.6332 22.1294 58.1009 22.1831 57.5394 22.1831C56.9632 22.1831 56.4139 22.1343 55.8915 22.0366C55.3739 21.939 54.9247 21.7925 54.5438 21.5972ZM75.9976 21.6265C75.231 21.9976 74.23 22.1831 72.9946 22.1831C71.3833 22.1831 70.1162 21.7095 69.1934 20.7622C68.2705 19.8149 67.8091 18.5527 67.8091 16.9756C67.8091 15.2959 68.3267 13.9336 69.3618 12.8887C70.4019 11.8438 71.7495 11.3213 73.4048 11.3213C74.4302 11.3213 75.2944 11.4507 75.9976 11.7095V13.9873C75.2944 13.5674 74.4937 13.3574 73.5952 13.3574C72.6089 13.3574 71.813 13.6675 71.2075 14.2876C70.6021 14.9077 70.2993 15.7476 70.2993 16.8071C70.2993 17.8228 70.585 18.6333 71.1562 19.2388C71.7275 19.8394 72.4966 20.1396 73.4634 20.1396C74.3862 20.1396 75.231 19.915 75.9976 19.4658V21.6265ZM81.6195 22.1831C80.3695 22.1831 79.3856 21.834 78.6678 21.1357C77.9549 20.4326 77.5985 19.4805 77.5985 18.2793C77.5985 17.0391 77.9696 16.0698 78.7117 15.3716C79.4539 14.6685 80.4573 14.3169 81.722 14.3169C82.9671 14.3169 83.9437 14.6685 84.6517 15.3716C85.3597 16.0698 85.7137 16.9951 85.7137 18.1475C85.7137 19.3926 85.3475 20.3765 84.6151 21.0991C83.8875 21.8218 82.889 22.1831 81.6195 22.1831ZM81.678 16.0894C81.1312 16.0894 80.7064 16.2773 80.4036 16.6533C80.1009 17.0293 79.9495 17.5615 79.9495 18.25C79.9495 19.6904 80.5306 20.4106 81.6927 20.4106C82.8011 20.4106 83.3553 19.6709 83.3553 18.1914C83.3553 16.79 82.7962 16.0894 81.678 16.0894ZM94.734 22H92.4196V20.9673H92.3903C91.8629 21.7778 91.089 22.1831 90.0685 22.1831C89.131 22.1831 88.3766 21.8535 87.8053 21.1943C87.234 20.5303 86.9484 19.605 86.9484 18.4185C86.9484 17.1782 87.2633 16.1846 87.8932 15.4375C88.5231 14.6904 89.3483 14.3169 90.3688 14.3169C91.3356 14.3169 92.0094 14.6636 92.3903 15.3569H92.4196V10.8965H94.734V22ZM92.4635 18.3525V17.7886C92.4635 17.3003 92.3219 16.895 92.0387 16.5728C91.7555 16.2505 91.3869 16.0894 90.9328 16.0894C90.4201 16.0894 90.0197 16.292 89.7316 16.6973C89.4435 17.0977 89.2995 17.6494 89.2995 18.3525C89.2995 19.0117 89.4386 19.5195 89.7169 19.876C89.9953 20.2324 90.381 20.4106 90.8742 20.4106C91.3429 20.4106 91.7238 20.2227 92.0167 19.8467C92.3146 19.4707 92.4635 18.9727 92.4635 18.3525ZM103.601 18.9092H98.708C98.7861 19.998 99.4721 20.5425 100.766 20.5425C101.591 20.5425 102.316 20.3472 102.941 19.9565V21.6265C102.248 21.9976 101.347 22.1831 100.239 22.1831C99.0278 22.1831 98.0879 21.8486 97.4189 21.1797C96.75 20.5059 96.4155 19.5684 96.4155 18.3672C96.4155 17.1221 96.7768 16.1357 97.4995 15.4082C98.2221 14.6807 99.1108 14.3169 100.165 14.3169C101.259 14.3169 102.104 14.6416 102.7 15.291C103.3 15.9404 103.601 16.8218 103.601 17.9351V18.9092ZM101.455 17.4883C101.455 16.4141 101.02 15.877 100.151 15.877C99.7797 15.877 99.4575 16.0308 99.184 16.3384C98.9155 16.646 98.7519 17.0293 98.6933 17.4883H101.455Z" fill="white"/>
<path d="M111 0H5C2.23858 0 0 2.23858 0 5V27C0 29.7614 2.23858 32 5 32H111C113.761 32 116 29.7614 116 27V5C116 2.23858 113.761 0 111 0Z" fill="url(#paint0_linear_25_25)"/>
<defs>
<linearGradient id="paint0_linear_25_25" x1="0" y1="0" x2="0" y2="32" gradientUnits="userSpaceOnUse">
<stop stop-color="#BBBBBB" stop-opacity="0.1"/>
<stop offset="1" stop-opacity="0.1"/>
</linearGradient>
</defs>
</svg>
